<?xml version="1.0" encoding="utf-8"?>
<!-- Generator: Adobe Illustrator 15.0.2, SVG Export Plug-In . SVG Version: 6.00 Build 0)  -->
<!DOCTYPE svg PUBLIC "-//W3C//DTD SVG 1.1//EN" "http://www.w3.org/Graphics/SVG/1.1/DTD/svg11.dtd">
<svg version="1.1" id="Ebene_1" xmlns="http://www.w3.org/2000/svg" xmlns:xlink="http://www.w3.org/1999/xlink" x="0px" y="0px"
	 width="139.8px" height="25.6px" viewBox="0 0 139.8 25.6" style="enable-background:new 0 0 139.8 25.6;" xml:space="preserve">
<style type="text/css">
<![CDATA[
	.st0{fill:#005192;}
]]>
</style>
<g id="hannover_re_xA9_">
	<g>
		<path d="M2.8,0h1.6L3,12.5h0.1c0.8-1.7,2.6-3.1,4.5-3.1c3.8,0,4.3,3.3,3.9,6.6l-1,9.1H8.9l1-9c0.3-2.5,0-4.9-2.5-4.9
			c-2.4,0-4.5,2.1-5,6.3l-0.9,7.7H0L2.8,0z"/>
		<path d="M21.3,17.4c-2.7,0-5.4,0.8-5.7,3.5c-0.2,1.9,1.1,2.9,2.5,2.9c3.4,0,4.6-2.7,4.9-5.3l0.1-1L21.3,17.4L21.3,17.4z
			 M24.4,18.7c-0.3,3-0.5,4.7-0.5,6.4h-1.5c0-0.8,0-1.6,0.1-2.5h-0.1c-1.1,2-2.6,2.9-4.6,2.9c-2.1,0-4.2-1.3-3.8-4.6
			c0.5-4.7,5-5.1,7.4-5.1h1.9l0.1-0.9c0.3-2.7-1.1-3.7-3-3.7c-1.4,0-2.7,0.6-3.9,1.7l-0.8-1.4c1.3-1.4,3.3-2.2,4.9-2.2
			c3,0,4.7,1.7,4.3,5.5L24.4,18.7z"/>
		<path d="M28.5,14.1c0.1-1.1,0.3-3.5,0.4-4.3h1.6c-0.1,1.1-0.2,2.4-0.2,2.7h0.1c0.8-1.7,2.6-3.1,4.5-3.1c3.8,0,4.3,3.3,3.9,6.6
			l-1,9.1h-1.6l1-9c0.3-2.5,0-4.9-2.5-4.9c-2.4,0-4.5,2.1-5,6.3l-0.9,7.7h-1.6L28.5,14.1z"/>
		<path d="M42.6,14.1c0.1-1.1,0.3-3.5,0.4-4.3h1.6c-0.1,1.1-0.2,2.4-0.2,2.7h0.1c0.8-1.7,2.6-3.1,4.5-3.1c3.8,0,4.3,3.3,3.9,6.6
			l-1,9.1h-1.6l1-9c0.3-2.5,0-4.9-2.5-4.9c-2.4,0-4.5,2.1-5,6.3l-0.9,7.7h-1.6L42.6,14.1z"/>
		<path d="M61.4,23.7c3,0,5.2-2.8,5.6-6.3s-1.2-6.3-4.2-6.3s-5.2,2.8-5.6,6.3C56.8,20.9,58.4,23.7,61.4,23.7 M63,9.4
			c3.8,0,6.1,3.4,5.6,8.1s-3.6,8.1-7.4,8.1c-3.8,0-6.1-3.4-5.5-8.1C56.2,12.8,59.2,9.4,63,9.4"/>
		<polygon points="70.6,9.8 72.4,9.8 75,23 80.5,9.8 82.1,9.8 75.5,25.1 73.9,25.1 		"/>
		<path d="M84.1,16.1c0.1-0.8,1.5-5,5-5c2.4,0,4,2.3,3.7,5H84.1z M92.4,21c-1,1.7-2.8,2.7-4.4,2.7c-3.7,0-4.2-4.1-4-5.8h10.3
			l0.2-1.4c0.4-3.6-1.2-7.2-5-7.2c-3.6,0-6.5,3.5-7,8c-0.5,4.8,1.6,8.1,5.3,8.1c2.2,0,4.2-1,5.7-3.3L92.4,21z"/>
		<path d="M97.6,14.1c0.1-1.1,0.3-3.5,0.4-4.3h1.6c-0.1,1.1-0.2,2.4-0.2,2.7c1-1.8,2.4-3.1,4.3-3.1c0.3,0,0.6,0.1,0.9,0.2l-0.4,2
			c-0.2-0.1-0.4-0.1-0.6-0.1c-2.8,0-4.3,2.4-4.6,5.4l-0.9,8.4h-1.6L97.6,14.1z"/>
	</g>
	<g>
		<path class="st0" d="M112.6,9h4l-0.3,2.6h0.1c1.1-2,2.3-3,4.1-3c0.5,0,1,0,1.3,0.2l-0.5,4.6c-0.5-0.2-1.1-0.3-1.7-0.3
			c-3,0-3.6,2.2-4,5.4l-0.8,6.7h-4L112.6,9z M125.1,15.2c0.3-1.6,1.4-3.1,3.2-3.1c1.4,0,2.3,1.4,2.1,3.1H125.1z M130.4,19.8
			c-0.8,1.1-1.8,2-3.1,2c-1.5,0-2.5-1.2-2.6-3.1h9.2l0.2-1.6c0.6-5.1-1.4-8.5-5.1-8.5c-4,0-7.5,3.3-8.1,8.5
			c-0.6,5.1,2.2,8.5,6.2,8.5c2.1,0,4.3-1.2,5.8-3.2L130.4,19.8z"/>
	</g>
	<g>
		<g>
			<g>
				<g>
					<path d="M137,8.4c-1.5,0-2.8-1.2-2.8-2.8c0-1.5,1.2-2.8,2.8-2.8c1.5,0,2.8,1.2,2.8,2.8S138.6,8.4,137,8.4L137,8.4z M137,3.2
						c-1.3,0-2.4,1.1-2.4,2.4c0,1.3,1.1,2.4,2.4,2.4c1.3,0,2.4-1.1,2.4-2.4C139.5,4.3,138.4,3.2,137,3.2L137,3.2z"/>
				</g>
			</g>
		</g>
		<g>
			<g>
				<g>
					<path d="M138.2,7.1h-0.5l-0.8-1.3h-0.4v1.3h-0.4v-3h0.8c0.9,0,1.1,0.4,1.1,0.8s-0.2,0.7-0.7,0.8L138.2,7.1L138.2,7.1z
						 M136.6,5.3h0.5c0.5,0,0.6-0.3,0.6-0.4c0-0.2-0.1-0.4-0.6-0.4h-0.5V5.3L136.6,5.3z"/>
				</g>
			</g>
		</g>
	</g>
</g>
</svg>
