<?xml version="1.0" encoding="UTF-8" standalone="no"?>
<!DOCTYPE svg PUBLIC "-//W3C//DTD SVG 1.1//EN" "http://www.w3.org/Graphics/SVG/1.1/DTD/svg11.dtd">

<svg x="0px" xmlns="http://www.w3.org/2000/svg" xmlns:xlink="http://www.w3.org/1999/xlink" y="0px" viewBox="16.314541 122.612106 918.777405 461.465881" width="1685.199463px" version="1.1" height="1191.970337px">
    <g ID="eSK4_B95FCAF9-BAB1-4990-9B85-29FE374B0BA0" dclass="DiaElement" element_type="eSK4">
        <path ID="contour_CC108C9B-7574-434E-9810-4E76B0436AD7" d=" M 589.843140 187.520554 L 590.488159 242.848145 C 590.488159 246.327667 591.754211 252.780411 593.531860 254.551727 C 597.463440 258.469604 598.292480 257.365814 604.853760 257.365814 L 729.892273 256.927490 C 735.416382 256.927490 736.963135 257.443878 739.472351 254.613785 C 741.485901 252.344116 745.014343 247.302414 745.014343 242.760086 L 745.319946 182.811111 C 745.319946 177.981583 744.259888 177.064880 741.400330 175.305588 C 737.838013 173.113983 735.552734 173.179031 729.953979 172.615631 L 604.605896 173.304123 C 600.124939 173.304123 596.083862 172.555603 593.657227 174.366913 C 590.694153 176.579544 589.844177 181.852386 589.843140 187.520554 Z M 589.843140 187.520554" dclass="DKDrawableShape" fill-opacity="0.000000" fill="#000000"></path>
        <path ID="eSK4_9FF2586B-7612-443E-841E-2402245FFA52" d=" M 731.231995 172.456512 C 730.535278 172.355438 730.037598 172.256378 729.539917 172.256378 C 729.241394 172.256378 728.843201 172.256378 728.544617 172.256378 C 726.255371 172.256378 704.457581 172.356445 662.852722 172.456512 C 621.446960 172.556610 598.953430 172.756729 595.369202 173.056976 C 591.885559 173.357178 589.795410 179.061371 589.397278 190.269608 C 588.899597 201.477844 588.800049 209.283569 589.098633 213.786880 C 589.397278 218.189072 589.496765 222.092957 589.596313 225.295303 C 589.596313 228.497665 589.795410 230.698273 590.193542 232.000229 C 590.093994 232.300446 590.093994 232.500610 590.193542 232.600693 C 590.493103 232.800858 591.488464 232.800858 593.378601 232.800858 C 593.378601 213.486694 593.279053 199.176178 593.179504 189.669189 C 592.981445 180.262299 595.866943 175.458771 601.838928 175.458771 L 733.620789 175.357666 C 738.496948 176.959869 740.985229 179.560760 741.384399 183.063339 C 741.384399 216.688004 741.483948 235.802032 741.781494 240.405396 C 741.681946 248.011978 739.293213 252.314117 734.515625 253.114731 C 729.837524 253.915314 707.641663 254.515762 668.326050 254.815994 L 599.548645 253.515060 C 597.956116 253.413956 596.761719 253.014679 595.865906 252.514313 C 595.069641 251.912857 594.372925 249.111832 593.975769 244.008072 C 593.478088 239.004410 592.781372 236.701721 591.786011 237.402222 C 591.586975 237.503311 591.487427 237.602386 591.387878 237.702423 C 590.790710 237.202042 590.493103 237.902573 590.293030 239.904037 C 590.293030 240.005142 590.293030 240.005142 590.293030 240.104202 C 590.392578 240.704666 590.392578 241.305099 590.392578 242.005600 C 591.188843 249.010742 591.885559 252.813507 592.383240 253.614136 C 593.279053 254.915070 593.876221 255.715668 594.174805 255.815765 C 594.871582 256.215027 595.667847 256.616302 596.663147 257.016663 C 596.962769 257.215790 597.460449 257.415924 598.056580 257.617096 C 644.239990 257.917297 678.577942 258.017365 701.172974 257.817261 C 723.866516 257.517059 735.412354 257.316895 736.009583 257.215790 C 736.607788 257.016663 737.403015 256.715424 738.298828 256.114960 C 739.096069 255.614609 739.791809 255.014160 740.390015 254.513794 C 740.987244 253.813263 741.385376 253.411987 741.385376 253.312912 C 743.176941 250.209625 744.172302 248.208145 744.371338 247.308502 C 745.366699 243.505722 745.763794 239.602844 745.665283 235.599899 C 745.665283 220.488815 745.665283 212.583008 745.665283 211.782440 L 745.665283 191.267380 C 745.764771 189.065750 745.864380 187.464600 745.864380 186.263702 C 745.963867 184.162170 745.963867 182.460938 745.763794 181.159958 C 745.465210 179.758942 744.668945 178.257843 743.376038 176.555573 C 741.982605 174.954391 739.991882 173.953644 737.603088 173.453293 C 735.214355 172.952927 733.422729 172.652710 732.326904 172.552643 C 731.928772 172.456512 731.530640 172.456512 731.231995 172.456512 Z M 731.231995 172.456512" dclass="DKDrawableShape" fill-opacity="1.000000" fill="#000000"></path>
        <path ID="eSK4_52E52767-A3CC-4173-B11F-0ED0B7CDE7B0" d=" M 732.325867 172.556580 C 731.928711 172.456512 731.529602 172.456512 731.230957 172.456512 C 730.534241 172.355423 730.036621 172.256348 729.538940 172.256348 C 729.240356 172.256348 728.842163 172.256348 728.543579 172.256348 C 726.254333 172.256348 704.456543 172.356445 662.851685 172.456512 C 621.445923 172.556580 598.952393 172.756729 595.368225 173.056976 C 591.884583 173.357162 589.794373 179.061371 589.396240 190.269608 C 588.898560 201.477844 588.799072 209.283569 589.097656 213.786850 C 589.396240 218.189072 589.495789 222.092941 589.595337 225.295303 C 589.595337 228.497665 589.794373 230.698257 590.192505 232.000229 C 590.093018 232.300446 590.093018 232.500595 590.192505 232.600693 L 590.293091 239.906021 C 590.293091 240.007111 590.293091 240.007111 590.293091 240.106186 C 590.392578 240.706619 590.392578 241.307083 590.392578 242.007584 C 591.188843 249.012726 591.885620 252.815491 592.383301 253.616089 C 593.279053 254.917053 593.876282 255.717651 594.174866 255.817719 C 594.871582 256.217010 595.667847 256.618286 596.663208 257.018616 C 596.962769 257.217773 597.460449 257.417908 598.056641 257.619080 C 644.239990 257.919281 678.578003 258.019348 701.172974 257.819214 C 723.866516 257.519012 735.412415 257.318878 736.009583 257.217773 C 736.607849 257.018616 737.403076 256.717407 738.298828 256.116943 C 739.096130 255.616592 739.791870 255.016144 740.390076 254.515778 C 740.987305 253.815247 741.385376 253.413971 741.385376 253.314896 C 743.177002 250.211594 744.172302 248.210129 744.371399 247.310471 C 745.366699 243.507706 745.763855 239.604813 745.665283 235.601868 C 745.665283 220.490784 745.665283 212.584991 745.665283 211.784409 L 745.665283 191.269363 C 745.764832 189.067734 745.864380 187.466583 745.864380 186.265686 C 745.963928 184.164124 745.963928 182.462906 745.763855 181.161942 C 745.465271 179.760910 744.668945 178.259796 743.376038 176.557526 C 741.982605 174.956360 739.991943 173.955627 737.603149 173.455261 C 735.213318 172.956909 733.421753 172.657684 732.325867 172.556580" dclass="DKDrawableShape" stroke="#FFFFFF" stroke-linecap="round" stroke-linejoin="round" stroke-opacity="1.000000" fill-opacity="0.000000" fill="#000000" stroke-width="1.000000"></path>
        <Hotspots>
            <StickySpot id_sticky_spot="A52494F3-5937-4D1D-8E77-B22615D66644_32773" relative_location="{0.000000,0.500000}" position_kind="1"></StickySpot>
            <StickySpot id_sticky_spot="A52494F3-5937-4D1D-8E77-B22615D66644_32768" relative_location="{-0.500000,0.000000}" position_kind="0"></StickySpot>
            <StickySpot id_sticky_spot="A52494F3-5937-4D1D-8E77-B22615D66644_32769" relative_location="{0.500000,0.000000}" position_kind="0"></StickySpot>
            <StickySpot id_sticky_spot="A52494F3-5937-4D1D-8E77-B22615D66644_32770" relative_location="{0.000000,0.500000}" position_kind="0"></StickySpot>
            <StickySpot id_sticky_spot="A52494F3-5937-4D1D-8E77-B22615D66644_32771" relative_location="{0.000000,-0.500000}" position_kind="0"></StickySpot>
            <StickySpot id_sticky_spot="A52494F3-5937-4D1D-8E77-B22615D66644_32772" relative_location="{-0.033375,0.491146}" position_kind="2"></StickySpot>
            <StickySpot id_sticky_spot="A52494F3-5937-4D1D-8E77-B22615D66644_32774" relative_location="{0.000000,0.500000}" position_kind="1"></StickySpot>
        </Hotspots>
        <g>
            <text style="font-family:Helvetica; font-size:18.000000; fill: #000000;" text-anchor="middle" transform="matrix(1.000000,0.000000,-0.000000,1.000000,667.581543,220.562408)">Life Premium</text>
        </g>
    </g>
    <g ID="eSK4_7CE3ADD2-3184-41B4-96A7-395DD8C4800C" dclass="DiaElement" element_type="eSK4">
        <path ID="contour_B7932531-7EDD-4402-B2F2-8878EF13BD4C" d=" M 366.526794 187.075241 L 367.171753 242.402832 C 367.171753 245.882355 368.437836 252.335098 370.215485 254.106415 C 374.147064 258.024292 374.976135 256.920502 381.537384 256.920502 L 506.575897 256.482178 C 512.099976 256.482178 513.646729 256.998566 516.155945 254.168472 C 518.169495 251.898804 521.697998 246.857101 521.697998 242.314774 L 522.003540 182.365799 C 522.003540 177.536270 520.943542 176.619568 518.083923 174.860275 C 514.521667 172.668671 512.236328 172.733719 506.637634 172.170319 L 381.289520 172.858810 C 376.808533 172.858810 372.767456 172.110291 370.340881 173.921600 C 367.377808 176.134232 366.527771 181.407074 366.526794 187.075241 Z M 366.526794 187.075241" dclass="DKDrawableShape" fill-opacity="0.000000" fill="#000000"></path>
        <path ID="eSK4_B1E5CB17-FFFE-400B-A06D-0ACD73700069" d=" M 507.915588 172.011200 C 507.218872 171.910126 506.721222 171.811066 506.223541 171.811066 C 505.924957 171.811066 505.526794 171.811066 505.228210 171.811066 C 502.938965 171.811066 481.141174 171.911133 439.536316 172.011200 C 398.130524 172.111298 375.637054 172.311417 372.052795 172.611664 C 368.569183 172.911865 366.479004 178.616058 366.080872 189.824295 C 365.583191 201.032532 365.483643 208.838257 365.782227 213.341568 C 366.080872 217.743759 366.180359 221.647644 366.279907 224.849991 C 366.279907 228.052353 366.479004 230.252960 366.877106 231.554916 C 366.777588 231.855133 366.777588 232.055298 366.877106 232.155380 C 367.176697 232.355545 368.172058 232.355545 370.062195 232.355545 C 370.062195 213.041382 369.962646 198.730865 369.863098 189.223877 C 369.665039 179.816986 372.550537 175.013458 378.522522 175.013458 L 510.304413 174.912354 C 515.180542 176.514557 517.668823 179.115448 518.067993 182.618027 C 518.067993 216.242691 518.167542 235.356720 518.465088 239.960083 C 518.365540 247.566666 515.976807 251.868805 511.199219 252.669418 C 506.521118 253.470001 484.325226 254.070450 445.009644 254.370682 L 376.232239 253.069748 C 374.639709 252.968643 373.445312 252.569366 372.549500 252.069000 C 371.753235 251.467545 371.056488 248.666519 370.659363 243.562759 C 370.161682 238.559097 369.464935 236.256409 368.469635 236.956909 C 368.270569 237.057999 368.171051 237.157074 368.071503 237.257111 C 367.474304 236.756729 367.176697 237.457260 366.976624 239.458725 C 366.976624 239.559830 366.976624 239.559830 366.976624 239.658890 C 367.076172 240.259354 367.076172 240.859787 367.076172 241.560287 C 367.872437 248.565430 368.569183 252.368195 369.066833 253.168823 C 369.962616 254.469757 370.559814 255.270355 370.858429 255.370453 C 371.555176 255.769714 372.351440 256.170990 373.346741 256.571350 C 373.646332 256.770477 374.144012 256.970612 374.740204 257.171783 C 420.923584 257.471985 455.261566 257.572052 477.856567 257.371948 C 500.550110 257.071747 512.095947 256.871582 512.693176 256.770477 C 513.291382 256.571350 514.086609 256.270111 514.982422 255.669662 C 515.779663 255.169296 516.475403 254.568848 517.073608 254.068481 C 517.670837 253.367950 518.068970 252.966675 518.068970 252.867599 C 519.860535 249.764313 520.855896 247.762833 521.054932 246.863190 C 522.050293 243.060410 522.447388 239.157532 522.348877 235.154587 C 522.348877 220.043503 522.348877 212.137695 522.348877 211.337128 L 522.348877 190.822067 C 522.448364 188.620438 522.547974 187.019287 522.547974 185.818390 C 522.647461 183.716858 522.647461 182.015625 522.447388 180.714645 C 522.148804 179.313629 521.352539 177.812531 520.059631 176.110260 C 518.666199 174.509079 516.675476 173.508331 514.286682 173.007980 C 511.897919 172.507614 510.106323 172.207397 509.010468 172.107330 C 508.612335 172.011200 508.214233 172.011200 507.915588 172.011200 Z M 507.915588 172.011200" dclass="DKDrawableShape" fill-opacity="1.000000" fill="#000000"></path>
        <path ID="eSK4_4D6E6E66-31AB-48B5-9EA7-BDE956711158" d=" M 509.009460 172.111267 C 508.612305 172.011200 508.213226 172.011200 507.914581 172.011200 C 507.217834 171.910110 506.720184 171.811035 506.222504 171.811035 C 505.923920 171.811035 505.525757 171.811035 505.227173 171.811035 C 502.937927 171.811035 481.140137 171.911133 439.535309 172.011200 C 398.129486 172.111267 375.636017 172.311417 372.051819 172.611664 C 368.568176 172.911850 366.477966 178.616058 366.079834 189.824295 C 365.582184 201.032532 365.482635 208.838257 365.781250 213.341537 C 366.079834 217.743759 366.179382 221.647629 366.278931 224.849991 C 366.278931 228.052353 366.477997 230.252945 366.876129 231.554916 C 366.776611 231.855133 366.776611 232.055283 366.876129 232.155380 L 366.976685 239.460709 C 366.976685 239.561798 366.976685 239.561798 366.976685 239.660873 C 367.076172 240.261307 367.076172 240.861771 367.076172 241.562271 C 367.872437 248.567413 368.569183 252.370178 369.066864 253.170776 C 369.962677 254.471741 370.559875 255.272339 370.858459 255.372406 C 371.555176 255.771698 372.351440 256.172974 373.346802 256.573303 C 373.646362 256.772461 374.144012 256.972595 374.740234 257.173767 C 420.923615 257.473969 455.261566 257.574036 477.856567 257.373901 C 500.550140 257.073700 512.096008 256.873566 512.693176 256.772461 C 513.291443 256.573303 514.086670 256.272095 514.982422 255.671646 C 515.779724 255.171280 516.475464 254.570831 517.073669 254.070465 C 517.670898 253.369934 518.068970 252.968658 518.068970 252.869583 C 519.860596 249.766281 520.855896 247.764816 521.054993 246.865158 C 522.050293 243.062393 522.447449 239.159500 522.348877 235.156555 C 522.348877 220.045471 522.348877 212.139679 522.348877 211.339096 L 522.348877 190.824051 C 522.448425 188.622421 522.547974 187.021271 522.547974 185.820374 C 522.647522 183.718811 522.647522 182.017593 522.447449 180.716629 C 522.148865 179.315598 521.352539 177.814484 520.059631 176.112213 C 518.666199 174.511047 516.675537 173.510315 514.286743 173.009949 C 511.896942 172.511597 510.105316 172.212372 509.009460 172.111267" dclass="DKDrawableShape" stroke="#FFFFFF" stroke-linecap="round" stroke-linejoin="round" stroke-opacity="1.000000" fill-opacity="0.000000" fill="#000000" stroke-width="1.000000"></path>
        <Hotspots>
            <StickySpot id_sticky_spot="F2AB0F62-9DE1-4551-A54D-9EB5CAEB56D3_32768" relative_location="{-0.500000,0.000000}" position_kind="0"></StickySpot>
            <StickySpot id_sticky_spot="F2AB0F62-9DE1-4551-A54D-9EB5CAEB56D3_32769" relative_location="{0.500000,0.000000}" position_kind="0"></StickySpot>
            <StickySpot id_sticky_spot="F2AB0F62-9DE1-4551-A54D-9EB5CAEB56D3_32770" relative_location="{0.000000,0.500000}" position_kind="0"></StickySpot>
            <StickySpot id_sticky_spot="F2AB0F62-9DE1-4551-A54D-9EB5CAEB56D3_32771" relative_location="{0.000000,-0.500000}" position_kind="0"></StickySpot>
            <StickySpot id_sticky_spot="F2AB0F62-9DE1-4551-A54D-9EB5CAEB56D3_32772" relative_location="{-0.500000,0.000000}" position_kind="1"></StickySpot>
            <StickySpot id_sticky_spot="F2AB0F62-9DE1-4551-A54D-9EB5CAEB56D3_32773" relative_location="{0.000000,0.500000}" position_kind="1"></StickySpot>
            <StickySpot id_sticky_spot="F2AB0F62-9DE1-4551-A54D-9EB5CAEB56D3_32774" relative_location="{0.000000,0.500000}" position_kind="1"></StickySpot>
        </Hotspots>
        <g>
            <text style="font-family:Helvetica; font-size:18.000000; fill: #000000;" text-anchor="middle" transform="matrix(1.000000,0.000000,-0.000000,1.000000,444.265167,220.117096)">Life Basic</text>
        </g>
    </g>
    <g ID="eSK4_A66DC193-4AB6-44D0-BD87-209868DAA289" dclass="DiaElement" element_type="eSK4">
        <path ID="contour_70E52947-41AD-44E2-B87F-3D4D4CF9C095" d=" M 177.573639 298.305725 L 178.218628 353.633301 C 178.218628 357.112823 179.484695 363.565582 181.262329 365.336884 C 185.193909 369.254761 186.022995 368.150970 192.584244 368.150970 L 317.622742 367.712646 C 323.146851 367.712646 324.693604 368.229034 327.202820 365.398926 C 329.216370 363.129272 332.744843 358.087585 332.744843 353.545227 L 333.050415 293.596252 C 333.050415 288.766724 331.990387 287.850037 329.130798 286.090729 C 325.568512 283.899139 323.283203 283.964172 317.684479 283.400787 L 192.336365 284.089264 C 187.855408 284.089264 183.814331 283.340759 181.387741 285.152069 C 178.424652 287.364685 177.574646 292.637543 177.573639 298.305725 Z M 177.573639 298.305725" dclass="DKDrawableShape" fill-opacity="0.000000" fill="#000000"></path>
        <path ID="eSK4_6010C392-2E0F-421D-A7A3-789FB51865AB" d=" M 318.962494 283.241669 C 318.265747 283.140594 317.768097 283.041534 317.270447 283.041534 C 316.971863 283.041534 316.573700 283.041534 316.275116 283.041534 C 313.985870 283.041534 292.188080 283.141602 250.583206 283.241669 C 209.177414 283.341766 186.683929 283.541870 183.099701 283.842133 C 179.616058 284.142334 177.525879 289.846527 177.127747 301.054749 C 176.630066 312.263000 176.530518 320.068726 176.829132 324.572021 C 177.127747 328.974243 177.227264 332.878113 177.326813 336.080475 C 177.326813 339.282806 177.525879 341.483429 177.924011 342.785400 C 177.824493 343.085602 177.824493 343.285767 177.924011 343.385834 C 178.223587 343.585999 179.218933 343.585999 181.109100 343.585999 C 181.109100 324.271851 181.009552 309.961334 180.910004 300.454346 C 180.711945 291.047455 183.597412 286.243927 189.569412 286.243927 L 321.351288 286.142822 C 326.227417 287.745026 328.715729 290.345917 329.114868 293.848480 C 329.114868 327.473175 329.214417 346.587189 329.511993 351.190552 C 329.412445 358.797150 327.023682 363.099274 322.246094 363.899872 C 317.567993 364.700470 295.372131 365.300903 256.056519 365.601135 L 187.279114 364.300201 C 185.686615 364.199127 184.492218 363.799835 183.596375 363.299469 C 182.800110 362.697998 182.103378 359.897003 181.706253 354.793213 C 181.208572 349.789581 180.511841 347.486877 179.516510 348.187378 C 179.317444 348.288452 179.217926 348.387543 179.118378 348.487579 C 178.521194 347.987213 178.223587 348.687744 178.023514 350.689209 C 178.023514 350.790283 178.023514 350.790283 178.023514 350.889374 C 178.123077 351.489807 178.123077 352.090240 178.123077 352.790771 C 178.919312 359.795898 179.616058 363.598663 180.113708 364.399292 C 181.009521 365.700226 181.606705 366.500824 181.905319 366.600922 C 182.602051 367.000183 183.398315 367.401459 184.393646 367.801819 C 184.693222 368.000946 185.190903 368.201080 185.787079 368.402252 C 231.970490 368.702454 266.308441 368.802521 288.903442 368.602417 C 311.597015 368.302216 323.142822 368.102051 323.740051 368.000946 C 324.338257 367.801819 325.133514 367.500580 326.029327 366.900116 C 326.826538 366.399780 327.522308 365.799316 328.120514 365.298950 C 328.717712 364.598419 329.115845 364.197144 329.115845 364.098053 C 330.907410 360.994781 331.902771 358.993286 332.101837 358.093658 C 333.097168 354.290894 333.494263 350.388000 333.395752 346.385040 C 333.395752 331.273987 333.395752 323.368164 333.395752 322.567596 L 333.395752 302.052551 C 333.495300 299.850891 333.594849 298.249756 333.594849 297.048859 C 333.694397 294.947327 333.694397 293.246094 333.494263 291.945129 C 333.195709 290.544098 332.399414 289.042999 331.106506 287.340729 C 329.713074 285.739563 327.722382 284.738800 325.333588 284.238434 C 322.944824 283.738098 321.153198 283.437866 320.057373 283.337799 C 319.659241 283.241669 319.261108 283.241669 318.962494 283.241669 Z M 318.962494 283.241669" dclass="DKDrawableShape" fill-opacity="1.000000" fill="#000000"></path>
        <path ID="eSK4_2CF581E3-B2D1-4F7E-A1AE-B32D70FEF7F1" d=" M 320.056335 283.341736 C 319.659180 283.241669 319.260101 283.241669 318.961456 283.241669 C 318.264709 283.140564 317.767059 283.041504 317.269379 283.041504 C 316.970795 283.041504 316.572632 283.041504 316.274048 283.041504 C 313.984802 283.041504 292.187012 283.141602 250.582169 283.241669 C 209.176376 283.341736 186.682892 283.541901 183.098694 283.842133 C 179.615051 284.142334 177.524826 289.846527 177.126709 301.054749 C 176.629059 312.263000 176.529510 320.068726 176.828125 324.572021 C 177.126709 328.974243 177.226257 332.878082 177.325806 336.080475 C 177.325806 339.282806 177.524872 341.483398 177.923004 342.785400 C 177.823486 343.085602 177.823486 343.285767 177.923004 343.385834 L 178.023560 350.691193 C 178.023560 350.792267 178.023560 350.792267 178.023560 350.891357 C 178.123062 351.491791 178.123062 352.092224 178.123062 352.792725 C 178.919312 359.797882 179.616058 363.600647 180.113739 364.401245 C 181.009552 365.702209 181.606735 366.502808 181.905319 366.602875 C 182.602066 367.002167 183.398315 367.403442 184.393677 367.803772 C 184.693253 368.002930 185.190887 368.203064 185.787125 368.404236 C 231.970490 368.704437 266.308441 368.804504 288.903442 368.604370 C 311.597015 368.304169 323.142883 368.104034 323.740051 368.002930 C 324.338287 367.803772 325.133545 367.502563 326.029327 366.902100 C 326.826569 366.401764 327.522308 365.801300 328.120544 365.300934 C 328.717743 364.600403 329.115875 364.199127 329.115875 364.100037 C 330.907440 360.996735 331.902771 358.995270 332.101868 358.095642 C 333.097198 354.292877 333.494324 350.389954 333.395752 346.387024 C 333.395752 331.275940 333.395752 323.370148 333.395752 322.569550 L 333.395752 302.054535 C 333.495300 299.852905 333.594849 298.251740 333.594849 297.050842 C 333.694397 294.949280 333.694397 293.248047 333.494324 291.947113 C 333.195740 290.546082 332.399445 289.044952 331.106506 287.342682 C 329.713074 285.741516 327.722412 284.740784 325.333618 284.240417 C 322.943817 283.742065 321.152191 283.442841 320.056335 283.341736" dclass="DKDrawableShape" stroke="#FFFFFF" stroke-linecap="round" stroke-linejoin="round" stroke-opacity="1.000000" fill-opacity="0.000000" fill="#000000" stroke-width="1.000000"></path>
        <Hotspots>
            <StickySpot id_sticky_spot="D7DE29EE-0633-4086-AE2B-A86E6B49B1BB_32770" relative_location="{0.000000,0.500000}" position_kind="0"></StickySpot>
            <StickySpot id_sticky_spot="D7DE29EE-0633-4086-AE2B-A86E6B49B1BB_32768" relative_location="{-0.500000,0.000000}" position_kind="0"></StickySpot>
            <StickySpot id_sticky_spot="D7DE29EE-0633-4086-AE2B-A86E6B49B1BB_32769" relative_location="{0.500000,0.000000}" position_kind="0"></StickySpot>
            <StickySpot id_sticky_spot="D7DE29EE-0633-4086-AE2B-A86E6B49B1BB_32771" relative_location="{0.000000,-0.500000}" position_kind="0"></StickySpot>
            <StickySpot id_sticky_spot="D7DE29EE-0633-4086-AE2B-A86E6B49B1BB_32772" relative_location="{0.000000,0.500000}" position_kind="1"></StickySpot>
            <StickySpot id_sticky_spot="D7DE29EE-0633-4086-AE2B-A86E6B49B1BB_32773" relative_location="{0.000000,0.500000}" position_kind="1"></StickySpot>
        </Hotspots>
        <g>
            <text style="font-family:Helvetica; font-size:18.000000; fill: #000000;" text-anchor="middle" transform="matrix(1.000000,0.000000,-0.000000,1.000000,255.312012,331.347565)">Life PD</text>
        </g>
    </g>
    <g ID="eSK5_92F34AC4-43B2-4349-A2B7-231702D31788" dclass="DiaElement" element_type="eSK5">
        <path ID="contour_DE891300-7671-45BB-8BE9-3279DB3C02DF" d=" M 208.249527 473.335938 L 299.542511 473.335938 L 299.542511 565.454468 L 208.249527 565.454468 Z M 208.249527 473.335938" dclass="DKDrawableShape" fill-opacity="0.000000" fill="#000000"></path>
        <path ID="eSK5_A74752E5-8C1F-41F3-9543-F5B6C1BC0434" d=" M 301.249115 471.895447 L 301.152222 474.633667 C 301.152222 475.221405 301.249115 475.416992 301.249115 475.416992 C 301.442993 473.068970 301.442993 471.895447 301.249115 471.895447 Z M 301.249115 471.895447" dclass="DKDrawableShape" fill-opacity="1.000000" fill="#000000"></path>
        <path ID="eSK5_06BEC56C-3237-4266-8BE9-A554D1B226D9" d=" M 295.628204 477.469666 C 295.725159 479.523346 295.918915 484.412964 296.112732 492.138550 C 296.209686 499.864136 296.403503 507.296387 296.499420 514.533020 C 296.597321 521.574097 296.014893 537.220886 294.948853 561.277771 C 294.851898 561.473389 294.754974 561.571167 294.754974 561.668945 L 294.754974 561.668945 C 294.658081 561.668945 294.658081 561.668945 294.658081 561.668945 C 292.137360 561.179993 285.645172 561.179993 275.081635 561.766724 C 261.998352 562.451294 240.386810 562.157898 210.053009 560.984436 C 210.246841 560.299866 210.246841 557.462891 210.149933 552.573242 C 210.537567 541.914917 209.956085 536.536316 208.308578 536.536316 C 207.533295 536.536316 207.048737 538.198792 206.661057 541.523743 C 206.564117 542.403870 206.564117 543.381775 206.467209 544.457520 C 206.370300 547.097900 206.370300 549.836060 206.467209 552.574280 C 206.467209 559.419739 207.048706 563.722595 208.114761 565.482849 C 239.611465 566.559570 269.557556 567.048584 297.856201 566.851929 C 298.340729 566.656372 298.631470 566.362976 298.728363 565.971863 C 298.825317 566.070618 298.921265 566.167419 299.019135 566.167419 C 300.569733 566.167419 301.248138 550.422852 300.763550 519.031494 L 300.763550 495.756897 C 301.054260 489.595947 301.151184 484.900909 301.151184 481.478180 C 301.151184 480.011322 301.151184 477.762085 301.151184 474.632721 L 301.151184 471.894531 C 290.587708 472.187927 280.411804 472.285706 270.525726 472.187927 C 259.478607 472.090118 239.125916 472.187927 209.373596 472.482269 C 209.276688 472.187927 209.082855 471.993317 208.792114 471.993317 C 208.598282 471.993317 208.307556 472.383484 208.016815 473.264618 C 208.016815 473.264618 208.016815 473.362396 208.016815 473.557983 C 207.435349 475.611633 207.144608 479.914490 206.950790 486.466614 C 206.853851 491.356232 206.853851 496.245850 206.950790 501.135468 C 206.950790 502.014587 207.047699 511.208069 207.144608 528.712952 L 207.144608 528.908508 C 207.144608 529.201904 207.144608 529.495300 207.144608 529.787659 C 208.016815 530.276611 209.082855 530.375427 210.536560 530.081055 C 211.893341 529.886414 212.281006 520.203979 211.699524 501.232300 C 211.214966 487.640106 211.602615 479.717957 212.862518 477.175323 C 241.259995 476.199341 268.880219 476.199341 295.628204 477.469666 Z M 294.368347 561.864563 C 293.883759 561.766724 293.980682 561.669922 294.561188 561.669922 C 294.465210 561.767700 294.368347 561.767700 294.368347 561.864563 Z M 294.368347 561.864563" dclass="DKDrawableShape" fill-opacity="1.000000" fill="#000000"></path>
        <path ID="eSK5_D10C27BF-6D20-498E-BCB9-DA1EA17982C5" d=" M 301.152222 474.633667 C 301.152222 475.221405 301.249115 475.416992 301.249115 475.416992 C 301.442993 473.069946 301.442993 471.895447 301.249115 471.895447 L 301.152222 474.633667" dclass="DKDrawableShape" stroke="#FFFFFF" stroke-linecap="round" stroke-linejoin="round" stroke-opacity="1.000000" fill-opacity="0.000000" fill="#000000" stroke-width="1.000000"></path>
        <path ID="eSK5_2ABF7A4E-1D89-4465-8AF1-0275AF855115" d=" M 207.146622 529.788635 C 206.758972 538.492126 206.565140 543.381775 206.468216 544.457520 C 206.371307 547.097900 206.371307 549.836060 206.468216 552.574280 C 206.468216 559.419739 207.049698 563.722595 208.115753 565.482849 C 239.612473 566.559570 269.558563 567.048523 297.857208 566.851929 C 298.341736 566.656372 298.632507 566.362976 298.729370 565.971802 C 298.826324 566.070618 298.922241 566.167419 299.020142 566.167419 C 300.570740 566.167419 301.249146 550.422852 300.764557 519.031494 L 300.764557 495.756866 C 301.055267 489.595947 301.152191 484.900909 301.152191 481.478180 C 301.152191 480.011292 301.152191 477.762085 301.152191 474.632690" dclass="DKDrawableShape" stroke="#FFFFFF" stroke-linecap="round" stroke-linejoin="round" stroke-opacity="1.000000" fill-opacity="0.000000" fill="#000000" stroke-width="1.000000"></path>
        <path d=" M 207.146622 528.713928 L 207.146622 528.909485 C 207.146622 529.202881 207.146622 529.496277 207.146622 529.788635" meta_id="eSK5" stroke="#FFFFFF" stroke-linejoin="round" stroke-opacity="1.000000" fill-opacity="0.000000" fill="#000000" stroke-linecap="round" stroke-width="1.000000"></path>
        <path d=" M 207.146622 528.713867 C 207.146622 529.104065 207.146622 529.496216 207.146622 529.789612" meta_id="eSK5" stroke="#FFFFFF" stroke-linejoin="round" stroke-opacity="1.000000" fill-opacity="0.000000" fill="#000000" stroke-linecap="round" stroke-width="1.000000"></path>
        <path ID="eSK5_A180AE91-8357-46AC-A4E7-224DB9341C58" d=" M 301.152222 474.633667 L 301.152222 471.895477 C 290.588715 472.188873 280.412872 472.286652 270.526733 472.188873 C 259.479614 472.091064 239.126923 472.188873 209.374634 472.483215 C 209.277710 472.188873 209.083893 471.994263 208.793152 471.994263 C 208.599304 471.994263 208.308578 472.384460 208.017853 473.265564 C 208.017853 473.265564 208.017853 473.363373 208.017853 473.558960 C 207.436371 475.612579 207.145630 479.915466 206.951813 486.467529 C 206.854874 491.357147 206.854874 496.246796 206.951813 501.136414 C 206.951813 502.015564 207.048721 511.209015 207.145630 528.713867" dclass="DKDrawableShape" stroke="#FFFFFF" stroke-linecap="round" stroke-linejoin="round" stroke-opacity="1.000000" fill-opacity="0.000000" fill="#000000" stroke-width="1.000000"></path>
        <Hotspots>
            <StickySpot id_sticky_spot="AB00A929-E2D1-48AC-A521-B3B0F541919A_32771" relative_location="{0.044326,-0.484827}" position_kind="1"></StickySpot>
            <StickySpot id_sticky_spot="AB00A929-E2D1-48AC-A521-B3B0F541919A_32768" relative_location="{-0.500000,0.000000}" position_kind="0"></StickySpot>
            <StickySpot id_sticky_spot="AB00A929-E2D1-48AC-A521-B3B0F541919A_32769" relative_location="{0.500000,0.000000}" position_kind="0"></StickySpot>
            <StickySpot id_sticky_spot="AB00A929-E2D1-48AC-A521-B3B0F541919A_32770" relative_location="{0.000000,0.500000}" position_kind="0"></StickySpot>
            <StickySpot id_sticky_spot="AB00A929-E2D1-48AC-A521-B3B0F541919A_32772" relative_location="{0.003171,-0.484827}" position_kind="1"></StickySpot>
        </Hotspots>
        <g>
            <text style="font-family:Helvetica; font-size:18.000000; fill: #000000;" text-anchor="middle" transform="matrix(1.000000,0.000000,-0.000000,1.000000,253.896027,502.895203)">TPD </text>
            <text style="font-family:Helvetica; font-size:18.000000; fill: #000000;" text-anchor="middle" transform="matrix(1.000000,0.000000,-0.000000,1.000000,253.896027,524.895203)">general </text>
            <text style="font-family:Helvetica; font-size:18.000000; fill: #000000;" text-anchor="middle" transform="matrix(1.000000,0.000000,-0.000000,1.000000,253.896027,546.895203)">basic</text>
        </g>
    </g>
    <g ID="eSK5_66CDD25F-55C5-4299-A92C-7722582A1AC5" dclass="DiaElement" element_type="eSK5">
        <path ID="contour_F1BD9B9A-A2FB-456D-BBBF-54ED21DAD314" d=" M 352.569855 473.238281 L 443.862823 473.238281 L 443.862823 565.356812 L 352.569855 565.356812 Z M 352.569855 473.238281" dclass="DKDrawableShape" fill-opacity="0.000000" fill="#000000"></path>
        <path ID="eSK5_69FE2496-AA00-493A-9D7C-08DCBB1A47BD" d=" M 445.569427 471.797791 L 445.472534 474.536011 C 445.472534 475.123749 445.569427 475.319336 445.569427 475.319336 C 445.763306 472.971313 445.763306 471.797791 445.569427 471.797791 Z M 445.569427 471.797791" dclass="DKDrawableShape" fill-opacity="1.000000" fill="#000000"></path>
        <path ID="eSK5_3B513D54-8FDC-438A-BDAB-560BF20FBA48" d=" M 439.948517 477.372009 C 440.045471 479.425690 440.239227 484.315308 440.433044 492.040894 C 440.529999 499.766479 440.723816 507.198730 440.819733 514.435364 C 440.917633 521.476440 440.335205 537.123230 439.269165 561.180115 C 439.172211 561.375732 439.075287 561.473511 439.075287 561.571289 L 439.075287 561.571289 C 438.978394 561.571289 438.978394 561.571289 438.978394 561.571289 C 436.457672 561.082336 429.965485 561.082336 419.401947 561.669067 C 406.318665 562.353638 384.707123 562.060242 354.373322 560.886780 C 354.567139 560.202209 354.567139 557.365234 354.470245 552.475586 C 354.857880 541.817261 354.276398 536.438660 352.628906 536.438660 C 351.853607 536.438660 351.369049 538.101135 350.981384 541.426086 C 350.884430 542.306213 350.884430 543.284119 350.787537 544.359863 C 350.690613 547.000244 350.690613 549.738403 350.787537 552.476624 C 350.787537 559.322083 351.369019 563.624939 352.435059 565.385193 C 383.931793 566.461914 413.877869 566.950928 442.176514 566.754272 C 442.661041 566.558716 442.951782 566.265320 443.048676 565.874207 C 443.145630 565.972961 443.241577 566.069763 443.339447 566.069763 C 444.890045 566.069763 445.568451 550.325195 445.083862 518.933838 L 445.083862 495.659241 C 445.374573 489.498291 445.471497 484.803253 445.471497 481.380524 C 445.471497 479.913666 445.471497 477.664429 445.471497 474.535065 L 445.471497 471.796875 C 434.908020 472.090271 424.732117 472.188049 414.846039 472.090271 C 403.798920 471.992462 383.446228 472.090271 353.693909 472.384613 C 353.596985 472.090271 353.403168 471.895660 353.112427 471.895660 C 352.918610 471.895660 352.627869 472.285828 352.337128 473.166962 C 352.337128 473.166962 352.337128 473.264740 352.337128 473.460327 C 351.755646 475.513977 351.464905 479.816833 351.271088 486.368958 C 351.174164 491.258575 351.174164 496.148193 351.271088 501.037811 C 351.271088 501.916931 351.368011 511.110413 351.464905 528.615295 L 351.464905 528.810852 C 351.464905 529.104248 351.464905 529.397644 351.464905 529.690002 C 352.337128 530.178955 353.403168 530.277771 354.856873 529.983398 C 356.213654 529.788757 356.601318 520.106323 356.019836 501.134644 C 355.535278 487.542450 355.922913 479.620300 357.182831 477.077667 C 385.580322 476.101685 413.200531 476.101685 439.948517 477.372009 Z M 438.688660 561.766907 C 438.204071 561.669067 438.300995 561.572266 438.881500 561.572266 C 438.785522 561.670044 438.688660 561.670044 438.688660 561.766907 Z M 438.688660 561.766907" dclass="DKDrawableShape" fill-opacity="1.000000" fill="#000000"></path>
        <path ID="eSK5_61FA4386-5DE2-49B6-9464-6F163067D30C" d=" M 445.472534 474.536011 C 445.472534 475.123749 445.569427 475.319336 445.569427 475.319336 C 445.763306 472.972290 445.763306 471.797791 445.569427 471.797791 L 445.472534 474.536011" dclass="DKDrawableShape" stroke="#FFFFFF" stroke-linecap="round" stroke-linejoin="round" stroke-opacity="1.000000" fill-opacity="0.000000" fill="#000000" stroke-width="1.000000"></path>
        <path ID="eSK5_0A26DDCD-9223-41CF-8043-CB3D98FBE6A2" d=" M 351.466949 529.690979 C 351.079285 538.394470 350.885437 543.284119 350.788544 544.359863 C 350.691620 547.000244 350.691620 549.738403 350.788544 552.476624 C 350.788544 559.322083 351.369995 563.624939 352.436066 565.385193 C 383.932800 566.461914 413.878876 566.950867 442.177521 566.754272 C 442.662048 566.558716 442.952820 566.265320 443.049683 565.874146 C 443.146637 565.972961 443.242554 566.069763 443.340454 566.069763 C 444.891052 566.069763 445.569458 550.325195 445.084869 518.933838 L 445.084869 495.659210 C 445.375580 489.498291 445.472504 484.803253 445.472504 481.380524 C 445.472504 479.913635 445.472504 477.664429 445.472504 474.535034" dclass="DKDrawableShape" stroke="#FFFFFF" stroke-linecap="round" stroke-linejoin="round" stroke-opacity="1.000000" fill-opacity="0.000000" fill="#000000" stroke-width="1.000000"></path>
        <path d=" M 351.466949 528.616272 L 351.466949 528.811829 C 351.466949 529.105225 351.466949 529.398621 351.466949 529.690979" meta_id="eSK5" stroke="#FFFFFF" stroke-linejoin="round" stroke-opacity="1.000000" fill-opacity="0.000000" fill="#000000" stroke-linecap="round" stroke-width="1.000000"></path>
        <path d=" M 351.466949 528.616211 C 351.466949 529.006409 351.466949 529.398560 351.466949 529.691956" meta_id="eSK5" stroke="#FFFFFF" stroke-linejoin="round" stroke-opacity="1.000000" fill-opacity="0.000000" fill="#000000" stroke-linecap="round" stroke-width="1.000000"></path>
        <path ID="eSK5_91669C85-2579-41E2-A922-1858878D112A" d=" M 445.472565 474.536011 L 445.472565 471.797821 C 434.909027 472.091217 424.733185 472.188995 414.847046 472.091217 C 403.799957 471.993408 383.447266 472.091217 353.694946 472.385559 C 353.598053 472.091217 353.404205 471.896606 353.113464 471.896606 C 352.919647 471.896606 352.628906 472.286804 352.338196 473.167908 C 352.338196 473.167908 352.338196 473.265717 352.338196 473.461304 C 351.756683 475.514923 351.465973 479.817810 351.272125 486.369873 C 351.175201 491.259491 351.175201 496.149139 351.272125 501.038757 C 351.272125 501.917908 351.369049 511.111359 351.465973 528.616211" dclass="DKDrawableShape" stroke="#FFFFFF" stroke-linecap="round" stroke-linejoin="round" stroke-opacity="1.000000" fill-opacity="0.000000" fill="#000000" stroke-width="1.000000"></path>
        <Hotspots>
            <StickySpot id_sticky_spot="DBDBF9B6-184E-4CD0-A622-FD95C17A7281_32768" relative_location="{-0.500000,0.000000}" position_kind="0"></StickySpot>
            <StickySpot id_sticky_spot="DBDBF9B6-184E-4CD0-A622-FD95C17A7281_32769" relative_location="{0.500000,0.000000}" position_kind="0"></StickySpot>
            <StickySpot id_sticky_spot="DBDBF9B6-184E-4CD0-A622-FD95C17A7281_32770" relative_location="{0.000000,0.500000}" position_kind="0"></StickySpot>
            <StickySpot id_sticky_spot="DBDBF9B6-184E-4CD0-A622-FD95C17A7281_32771" relative_location="{0.000000,-0.500000}" position_kind="0"></StickySpot>
        </Hotspots>
        <g>
            <text style="font-family:Helvetica; font-size:18.000000; fill: #000000;" text-anchor="middle" transform="matrix(1.000000,0.000000,-0.000000,1.000000,398.216339,513.797546)">Life </text>
            <text style="font-family:Helvetica; font-size:18.000000; fill: #000000;" text-anchor="middle" transform="matrix(1.000000,0.000000,-0.000000,1.000000,398.216339,535.797546)">Cover</text>
        </g>
    </g>
    <g ID="eSK5_84CF6A6B-F5AB-4268-B61E-6C18505A36AD" dclass="DiaElement" element_type="eSK5">
        <path ID="contour_46118A76-D396-4374-AB57-4B8EA335F00C" d=" M 455.312042 472.238281 L 546.605042 472.238281 L 546.605042 564.356812 L 455.312042 564.356812 Z M 455.312042 472.238281" dclass="DKDrawableShape" fill-opacity="0.000000" fill="#000000"></path>
        <path ID="eSK5_6D43485B-1C75-4163-9635-FB824113113A" d=" M 548.311646 470.797791 L 548.214722 473.536011 C 548.214722 474.123749 548.311646 474.319336 548.311646 474.319336 C 548.505493 471.971313 548.505493 470.797791 548.311646 470.797791 Z M 548.311646 470.797791" dclass="DKDrawableShape" fill-opacity="1.000000" fill="#000000"></path>
        <path ID="eSK5_4A2B7D32-9413-4FC5-80FE-5B0F59288F42" d=" M 542.690735 476.372009 C 542.787659 478.425690 542.981445 483.315308 543.175232 491.040894 C 543.272156 498.766479 543.466003 506.198730 543.561951 513.435364 C 543.659851 520.476440 543.077393 536.123230 542.011353 560.180115 C 541.914429 560.375732 541.817444 560.473511 541.817444 560.571289 L 541.817444 560.571289 C 541.720581 560.571289 541.720581 560.571289 541.720581 560.571289 C 539.199890 560.082336 532.707703 560.082336 522.144165 560.669067 C 509.060852 561.353638 487.449310 561.060242 457.115509 559.886780 C 457.309326 559.202209 457.309326 556.365234 457.212433 551.475586 C 457.600067 540.817261 457.018585 535.438660 455.371094 535.438660 C 454.595795 535.438660 454.111237 537.101135 453.723572 540.426086 C 453.626617 541.306213 453.626617 542.284119 453.529724 543.359863 C 453.432800 546.000244 453.432800 548.738403 453.529724 551.476624 C 453.529724 558.322083 454.111206 562.624939 455.177246 564.385193 C 486.673981 565.461914 516.620056 565.950928 544.918701 565.754272 C 545.403198 565.558716 545.693970 565.265320 545.790894 564.874207 C 545.887817 564.972961 545.983765 565.069763 546.081665 565.069763 C 547.632202 565.069763 548.310608 549.325195 547.826050 517.933838 L 547.826050 494.659241 C 548.116760 488.498291 548.213684 483.803253 548.213684 480.380524 C 548.213684 478.913666 548.213684 476.664429 548.213684 473.535065 L 548.213684 470.796875 C 537.650208 471.090271 527.474304 471.188049 517.588196 471.090271 C 506.541107 470.992462 486.188416 471.090271 456.436096 471.384613 C 456.339172 471.090271 456.145355 470.895660 455.854614 470.895660 C 455.660797 470.895660 455.370056 471.285828 455.079315 472.166962 C 455.079315 472.166962 455.079315 472.264740 455.079315 472.460327 C 454.497833 474.513977 454.207092 478.816833 454.013275 485.368958 C 453.916351 490.258575 453.916351 495.148193 454.013275 500.037811 C 454.013275 500.916931 454.110199 510.110413 454.207092 527.615295 L 454.207092 527.810852 C 454.207092 528.104248 454.207092 528.397644 454.207092 528.690002 C 455.079315 529.178955 456.145355 529.277771 457.599060 528.983398 C 458.955841 528.788757 459.343506 519.106323 458.762024 500.134644 C 458.277466 486.542450 458.665100 478.620300 459.925018 476.077667 C 488.322510 475.101685 515.942688 475.101685 542.690735 476.372009 Z M 541.430847 560.766907 C 540.946228 560.669067 541.043213 560.572266 541.623718 560.572266 C 541.527710 560.670044 541.430847 560.670044 541.430847 560.766907 Z M 541.430847 560.766907" dclass="DKDrawableShape" fill-opacity="1.000000" fill="#000000"></path>
        <path ID="eSK5_A4A8EC6C-980D-42D6-A222-DFA1A60B157E" d=" M 548.214722 473.536011 C 548.214722 474.123749 548.311646 474.319336 548.311646 474.319336 C 548.505493 471.972290 548.505493 470.797791 548.311646 470.797791 L 548.214722 473.536011" dclass="DKDrawableShape" stroke="#FFFFFF" stroke-linecap="round" stroke-linejoin="round" stroke-opacity="1.000000" fill-opacity="0.000000" fill="#000000" stroke-width="1.000000"></path>
        <path ID="eSK5_3960EABD-73CC-45B5-A8CD-70B430388761" d=" M 454.209137 528.690979 C 453.821472 537.394470 453.627625 542.284119 453.530731 543.359863 C 453.433807 546.000244 453.433807 548.738403 453.530731 551.476624 C 453.530731 558.322083 454.112183 562.624939 455.178253 564.385193 C 486.674988 565.461914 516.621094 565.950867 544.919678 565.754272 C 545.404236 565.558716 545.695007 565.265320 545.791870 564.874146 C 545.888794 564.972961 545.984741 565.069763 546.082642 565.069763 C 547.633240 565.069763 548.311646 549.325195 547.827026 517.933838 L 547.827026 494.659210 C 548.117737 488.498291 548.214722 483.803253 548.214722 480.380524 C 548.214722 478.913635 548.214722 476.664429 548.214722 473.535034" dclass="DKDrawableShape" stroke="#FFFFFF" stroke-linecap="round" stroke-linejoin="round" stroke-opacity="1.000000" fill-opacity="0.000000" fill="#000000" stroke-width="1.000000"></path>
        <path d=" M 454.209137 527.616272 L 454.209137 527.811829 C 454.209137 528.105225 454.209137 528.398621 454.209137 528.690979" meta_id="eSK5" stroke="#FFFFFF" stroke-linejoin="round" stroke-opacity="1.000000" fill-opacity="0.000000" fill="#000000" stroke-linecap="round" stroke-width="1.000000"></path>
        <path d=" M 454.209137 527.616211 C 454.209137 528.006409 454.209137 528.398560 454.209137 528.691956" meta_id="eSK5" stroke="#FFFFFF" stroke-linejoin="round" stroke-opacity="1.000000" fill-opacity="0.000000" fill="#000000" stroke-linecap="round" stroke-width="1.000000"></path>
        <path ID="eSK5_47846410-1BF7-44EB-992F-E126543E4E4F" d=" M 548.214722 473.536011 L 548.214722 470.797821 C 537.651245 471.091217 527.475403 471.188995 517.589233 471.091217 C 506.542145 470.993408 486.189453 471.091217 456.437134 471.385559 C 456.340240 471.091217 456.146393 470.896606 455.855652 470.896606 C 455.661835 470.896606 455.371094 471.286804 455.080383 472.167908 C 455.080383 472.167908 455.080383 472.265717 455.080383 472.461304 C 454.498871 474.514923 454.208160 478.817810 454.014313 485.369873 C 453.917389 490.259491 453.917389 495.149139 454.014313 500.038757 C 454.014313 500.917908 454.111237 510.111359 454.208160 527.616211" dclass="DKDrawableShape" stroke="#FFFFFF" stroke-linecap="round" stroke-linejoin="round" stroke-opacity="1.000000" fill-opacity="0.000000" fill="#000000" stroke-width="1.000000"></path>
        <Hotspots>
            <StickySpot id_sticky_spot="0235FF0A-C06C-40F9-9D43-36F6B919FC48_32768" relative_location="{-0.500000,0.000000}" position_kind="0"></StickySpot>
            <StickySpot id_sticky_spot="0235FF0A-C06C-40F9-9D43-36F6B919FC48_32769" relative_location="{0.500000,0.000000}" position_kind="0"></StickySpot>
            <StickySpot id_sticky_spot="0235FF0A-C06C-40F9-9D43-36F6B919FC48_32770" relative_location="{0.000000,0.500000}" position_kind="0"></StickySpot>
            <StickySpot id_sticky_spot="0235FF0A-C06C-40F9-9D43-36F6B919FC48_32771" relative_location="{0.000000,-0.500000}" position_kind="0"></StickySpot>
        </Hotspots>
        <g>
            <text style="font-family:Helvetica; font-size:18.000000; fill: #000000;" text-anchor="middle" transform="matrix(1.000000,0.000000,-0.000000,1.000000,500.958557,512.797546)">TPD </text>
            <text style="font-family:Helvetica; font-size:18.000000; fill: #000000;" text-anchor="middle" transform="matrix(1.000000,0.000000,-0.000000,1.000000,500.958557,534.797546)">general</text>
        </g>
    </g>
    <g ID="eSK5_F1C3DBC3-5D2D-4480-99E6-17822BC9FEC7" dclass="DiaElement" element_type="eSK5">
        <path ID="contour_72FB413E-8A43-4264-B71E-2A80BC5303BC" d=" M 584.257324 470.363281 L 675.550293 470.363281 L 675.550293 562.481812 L 584.257324 562.481812 Z M 584.257324 470.363281" dclass="DKDrawableShape" fill-opacity="0.000000" fill="#000000"></path>
        <path ID="eSK5_B5F174F5-681F-4952-AAAC-7A4A2D7882F6" d=" M 677.256958 468.922791 L 677.160034 471.661011 C 677.160034 472.248749 677.256958 472.444336 677.256958 472.444336 C 677.450806 470.096313 677.450806 468.922791 677.256958 468.922791 Z M 677.256958 468.922791" dclass="DKDrawableShape" fill-opacity="1.000000" fill="#000000"></path>
        <path ID="eSK5_4ACC0100-C9E3-41E2-A9E9-B0FFC3EF29F5" d=" M 671.635986 474.497009 C 671.732910 476.550690 671.926697 481.440308 672.120544 489.165894 C 672.217468 496.891479 672.411255 504.323730 672.507202 511.560364 C 672.605103 518.601440 672.022705 534.248230 670.956604 558.305115 C 670.859680 558.500732 670.762756 558.598511 670.762756 558.696289 L 670.762756 558.696289 C 670.665894 558.696289 670.665894 558.696289 670.665894 558.696289 C 668.145142 558.207336 661.652954 558.207336 651.089417 558.794067 C 638.006165 559.478638 616.394592 559.185242 586.060791 558.011780 C 586.254639 557.327209 586.254639 554.490234 586.157715 549.600586 C 586.545349 538.942261 585.963867 533.563660 584.316345 533.563660 C 583.541077 533.563660 583.056519 535.226135 582.668823 538.551086 C 582.571899 539.431213 582.571899 540.409119 582.474976 541.484863 C 582.378113 544.125244 582.378113 546.863403 582.474976 549.601624 C 582.474976 556.447083 583.056519 560.749939 584.122559 562.510193 C 615.619263 563.586914 645.565369 564.075928 673.863953 563.879272 C 674.348511 563.683716 674.639282 563.390320 674.736145 562.999207 C 674.833069 563.097961 674.929077 563.194763 675.026917 563.194763 C 676.577515 563.194763 677.255920 547.450195 676.771301 516.058838 L 676.771301 492.784241 C 677.062012 486.623291 677.158997 481.928253 677.158997 478.505524 C 677.158997 477.038666 677.158997 474.789429 677.158997 471.660065 L 677.158997 468.921875 C 666.595459 469.215271 656.419617 469.313049 646.533508 469.215271 C 635.486389 469.117462 615.133728 469.215271 585.381409 469.509613 C 585.284485 469.215271 585.090637 469.020660 584.799866 469.020660 C 584.606079 469.020660 584.315308 469.410828 584.024597 470.291962 C 584.024597 470.291962 584.024597 470.389740 584.024597 470.585327 C 583.443115 472.638977 583.152405 476.941833 582.958557 483.493958 C 582.861633 488.383575 582.861633 493.273193 582.958557 498.162811 C 582.958557 499.041931 583.055481 508.235413 583.152405 525.740295 L 583.152405 525.935852 C 583.152405 526.229248 583.152405 526.522644 583.152405 526.815002 C 584.024597 527.303955 585.090637 527.402771 586.544373 527.108398 C 587.901123 526.913757 588.288757 517.231323 587.707275 498.259644 C 587.222778 484.667450 587.610413 476.745300 588.870300 474.202667 C 617.267761 473.226685 644.888000 473.226685 671.635986 474.497009 Z M 670.376099 558.891907 C 669.891541 558.794067 669.988464 558.697266 670.568970 558.697266 C 670.473022 558.795044 670.376099 558.795044 670.376099 558.891907 Z M 670.376099 558.891907" dclass="DKDrawableShape" fill-opacity="1.000000" fill="#000000"></path>
        <path ID="eSK5_62DDEABB-E265-44A4-9B09-69BF6842D9F2" d=" M 677.160034 471.661011 C 677.160034 472.248749 677.256958 472.444336 677.256958 472.444336 C 677.450806 470.097290 677.450806 468.922791 677.256958 468.922791 L 677.160034 471.661011" dclass="DKDrawableShape" stroke="#FFFFFF" stroke-linecap="round" stroke-linejoin="round" stroke-opacity="1.000000" fill-opacity="0.000000" fill="#000000" stroke-width="1.000000"></path>
        <path ID="eSK5_818CBC7B-DD3A-4672-B558-1FA4180879B2" d=" M 583.154419 526.815979 C 582.766785 535.519470 582.572937 540.409119 582.476013 541.484863 C 582.379150 544.125244 582.379150 546.863403 582.476013 549.601624 C 582.476013 556.447083 583.057495 560.749939 584.123535 562.510193 C 615.620300 563.586914 645.566406 564.075867 673.864990 563.879272 C 674.349548 563.683716 674.640320 563.390320 674.737183 562.999146 C 674.834106 563.097961 674.930054 563.194763 675.027954 563.194763 C 676.578552 563.194763 677.256958 547.450195 676.772339 516.058838 L 676.772339 492.784210 C 677.063049 486.623291 677.160034 481.928253 677.160034 478.505524 C 677.160034 477.038635 677.160034 474.789429 677.160034 471.660034" dclass="DKDrawableShape" stroke="#FFFFFF" stroke-linecap="round" stroke-linejoin="round" stroke-opacity="1.000000" fill-opacity="0.000000" fill="#000000" stroke-width="1.000000"></path>
        <path d=" M 583.154419 525.741272 L 583.154419 525.936829 C 583.154419 526.230225 583.154419 526.523621 583.154419 526.815979" meta_id="eSK5" stroke="#FFFFFF" stroke-linejoin="round" stroke-opacity="1.000000" fill-opacity="0.000000" fill="#000000" stroke-linecap="round" stroke-width="1.000000"></path>
        <path d=" M 583.154419 525.741211 C 583.154419 526.131409 583.154419 526.523560 583.154419 526.816956" meta_id="eSK5" stroke="#FFFFFF" stroke-linejoin="round" stroke-opacity="1.000000" fill-opacity="0.000000" fill="#000000" stroke-linecap="round" stroke-width="1.000000"></path>
        <path ID="eSK5_6A5E3142-7C01-42D5-B6AF-9DEC18F36F63" d=" M 677.160034 471.661011 L 677.160034 468.922821 C 666.596558 469.216217 656.420715 469.313995 646.534546 469.216217 C 635.487427 469.118408 615.134766 469.216217 585.382446 469.510559 C 585.285522 469.216217 585.091736 469.021606 584.800964 469.021606 C 584.607117 469.021606 584.316406 469.411804 584.025696 470.292908 C 584.025696 470.292908 584.025696 470.390717 584.025696 470.586304 C 583.444214 472.639923 583.153442 476.942810 582.959656 483.494873 C 582.862671 488.384491 582.862671 493.274139 582.959656 498.163757 C 582.959656 499.042908 583.056519 508.236359 583.153442 525.741211" dclass="DKDrawableShape" stroke="#FFFFFF" stroke-linecap="round" stroke-linejoin="round" stroke-opacity="1.000000" fill-opacity="0.000000" fill="#000000" stroke-width="1.000000"></path>
        <Hotspots>
            <StickySpot id_sticky_spot="D1165D86-E1AF-4734-96E7-1A7A7C368636_32768" relative_location="{-0.500000,0.000000}" position_kind="0"></StickySpot>
            <StickySpot id_sticky_spot="D1165D86-E1AF-4734-96E7-1A7A7C368636_32769" relative_location="{0.500000,0.000000}" position_kind="0"></StickySpot>
            <StickySpot id_sticky_spot="D1165D86-E1AF-4734-96E7-1A7A7C368636_32770" relative_location="{0.000000,0.500000}" position_kind="0"></StickySpot>
            <StickySpot id_sticky_spot="D1165D86-E1AF-4734-96E7-1A7A7C368636_32771" relative_location="{0.000000,-0.500000}" position_kind="0"></StickySpot>
            <StickySpot id_sticky_spot="D1165D86-E1AF-4734-96E7-1A7A7C368636_32772" relative_location="{0.060380,-0.484828}" position_kind="2"></StickySpot>
        </Hotspots>
        <g>
            <text style="font-family:Helvetica; font-size:18.000000; fill: #000000;" text-anchor="middle" transform="matrix(1.000000,0.000000,-0.000000,1.000000,629.903809,510.922546)">Comfort </text>
            <text style="font-family:Helvetica; font-size:18.000000; fill: #000000;" text-anchor="middle" transform="matrix(1.000000,0.000000,-0.000000,1.000000,629.903809,532.922546)">Cover</text>
        </g>
    </g>
    <g ID="eSK5_FECB988D-D7CD-4CFB-85A8-25869B3D0017" dclass="DiaElement" element_type="eSK5">
        <path ID="contour_08A3BC4B-225F-4754-ACCD-DD93B7DC0F08" d=" M 688.179199 469.429688 L 779.472168 469.429688 L 779.472168 561.548218 L 688.179199 561.548218 Z M 688.179199 469.429688" dclass="DKDrawableShape" fill-opacity="0.000000" fill="#000000"></path>
        <path ID="eSK5_7F2AF197-53F0-4D1C-99B5-3F08A0A4A01F" d=" M 781.178833 467.989197 L 781.081909 470.727417 C 781.081909 471.315155 781.178833 471.510742 781.178833 471.510742 C 781.372681 469.162720 781.372681 467.989197 781.178833 467.989197 Z M 781.178833 467.989197" dclass="DKDrawableShape" fill-opacity="1.000000" fill="#000000"></path>
        <path ID="eSK5_F5281857-9850-46C1-855B-B20239BB4E54" d=" M 775.557861 473.563416 C 775.654785 475.617096 775.848572 480.506714 776.042419 488.232300 C 776.139343 495.957886 776.333130 503.390137 776.429077 510.626770 C 776.526978 517.667847 775.944580 533.314636 774.878479 557.371521 C 774.781555 557.567139 774.684631 557.664917 774.684631 557.762695 L 774.684631 557.762695 C 774.587769 557.762695 774.587769 557.762695 774.587769 557.762695 C 772.067017 557.273743 765.574829 557.273743 755.011292 557.860474 C 741.928040 558.545044 720.316467 558.251648 689.982666 557.078186 C 690.176514 556.393616 690.176514 553.556641 690.079590 548.666992 C 690.467224 538.008667 689.885742 532.630066 688.238220 532.630066 C 687.462952 532.630066 686.978394 534.292542 686.590698 537.617493 C 686.493774 538.497620 686.493774 539.475525 686.396851 540.551270 C 686.299988 543.191650 686.299988 545.929810 686.396851 548.668030 C 686.396851 555.513489 686.978394 559.816345 688.044434 561.576599 C 719.541138 562.653320 749.487244 563.142334 777.785828 562.945679 C 778.270386 562.750122 778.561157 562.456726 778.658020 562.065613 C 778.754944 562.164368 778.850952 562.261169 778.948792 562.261169 C 780.499390 562.261169 781.177795 546.516602 780.693176 515.125244 L 780.693176 491.850647 C 780.983887 485.689697 781.080872 480.994659 781.080872 477.571930 C 781.080872 476.105072 781.080872 473.855835 781.080872 470.726471 L 781.080872 467.988281 C 770.517334 468.281677 760.341492 468.379456 750.455383 468.281677 C 739.408264 468.183868 719.055603 468.281677 689.303284 468.576019 C 689.206360 468.281677 689.012512 468.087067 688.721741 468.087067 C 688.527954 468.087067 688.237183 468.477234 687.946472 469.358368 C 687.946472 469.358368 687.946472 469.456146 687.946472 469.651733 C 687.364990 471.705383 687.074280 476.008240 686.880432 482.560364 C 686.783508 487.449982 686.783508 492.339600 686.880432 497.229218 C 686.880432 498.108337 686.977356 507.301819 687.074280 524.806702 L 687.074280 525.002258 C 687.074280 525.295654 687.074280 525.589050 687.074280 525.881409 C 687.946472 526.370361 689.012512 526.469177 690.466248 526.174805 C 691.822998 525.980164 692.210632 516.297729 691.629150 497.326050 C 691.144653 483.733856 691.532288 475.811707 692.792175 473.269073 C 721.189636 472.293091 748.809875 472.293091 775.557861 473.563416 Z M 774.297974 557.958313 C 773.813416 557.860474 773.910339 557.763672 774.490845 557.763672 C 774.394897 557.861450 774.297974 557.861450 774.297974 557.958313 Z M 774.297974 557.958313" dclass="DKDrawableShape" fill-opacity="1.000000" fill="#000000"></path>
        <path ID="eSK5_76DFD593-62F4-4926-A74B-26FEE3C0CE35" d=" M 781.081909 470.727417 C 781.081909 471.315155 781.178833 471.510742 781.178833 471.510742 C 781.372681 469.163696 781.372681 467.989197 781.178833 467.989197 L 781.081909 470.727417" dclass="DKDrawableShape" stroke="#FFFFFF" stroke-linecap="round" stroke-linejoin="round" stroke-opacity="1.000000" fill-opacity="0.000000" fill="#000000" stroke-width="1.000000"></path>
        <path ID="eSK5_00C51E65-A746-450D-8772-CEE87BACF39B" d=" M 687.076294 525.882385 C 686.688660 534.585876 686.494812 539.475525 686.397888 540.551270 C 686.301025 543.191650 686.301025 545.929810 686.397888 548.668030 C 686.397888 555.513489 686.979370 559.816345 688.045410 561.576599 C 719.542175 562.653320 749.488281 563.142273 777.786865 562.945679 C 778.271423 562.750122 778.562195 562.456726 778.659058 562.065552 C 778.755981 562.164368 778.851929 562.261169 778.949829 562.261169 C 780.500427 562.261169 781.178833 546.516602 780.694214 515.125244 L 780.694214 491.850616 C 780.984924 485.689697 781.081909 480.994659 781.081909 477.571930 C 781.081909 476.105042 781.081909 473.855835 781.081909 470.726440" dclass="DKDrawableShape" stroke="#FFFFFF" stroke-linecap="round" stroke-linejoin="round" stroke-opacity="1.000000" fill-opacity="0.000000" fill="#000000" stroke-width="1.000000"></path>
        <path d=" M 687.076294 524.807678 L 687.076294 525.003235 C 687.076294 525.296631 687.076294 525.590027 687.076294 525.882385" meta_id="eSK5" stroke="#FFFFFF" stroke-linejoin="round" stroke-opacity="1.000000" fill-opacity="0.000000" fill="#000000" stroke-linecap="round" stroke-width="1.000000"></path>
        <path d=" M 687.076294 524.807617 C 687.076294 525.197815 687.076294 525.589966 687.076294 525.883362" meta_id="eSK5" stroke="#FFFFFF" stroke-linejoin="round" stroke-opacity="1.000000" fill-opacity="0.000000" fill="#000000" stroke-linecap="round" stroke-width="1.000000"></path>
        <path ID="eSK5_7C4D58E4-09AD-4636-B4B4-F665888FD0F0" d=" M 781.081909 470.727417 L 781.081909 467.989227 C 770.518433 468.282623 760.342590 468.380402 750.456421 468.282623 C 739.409302 468.184814 719.056641 468.282623 689.304321 468.576965 C 689.207397 468.282623 689.013611 468.088013 688.722839 468.088013 C 688.528992 468.088013 688.238281 468.478210 687.947571 469.359314 C 687.947571 469.359314 687.947571 469.457123 687.947571 469.652710 C 687.366089 471.706329 687.075317 476.009216 686.881531 482.561279 C 686.784546 487.450897 686.784546 492.340546 686.881531 497.230164 C 686.881531 498.109314 686.978394 507.302765 687.075317 524.807617" dclass="DKDrawableShape" stroke="#FFFFFF" stroke-linecap="round" stroke-linejoin="round" stroke-opacity="1.000000" fill-opacity="0.000000" fill="#000000" stroke-width="1.000000"></path>
        <Hotspots>
            <StickySpot id_sticky_spot="9B5D0D07-0A9B-4612-92B7-FF5810F55E58_32771" relative_location="{0.000000,-0.500000}" position_kind="0"></StickySpot>
            <StickySpot id_sticky_spot="9B5D0D07-0A9B-4612-92B7-FF5810F55E58_32768" relative_location="{-0.500000,0.000000}" position_kind="0"></StickySpot>
            <StickySpot id_sticky_spot="9B5D0D07-0A9B-4612-92B7-FF5810F55E58_32769" relative_location="{0.500000,0.000000}" position_kind="0"></StickySpot>
            <StickySpot id_sticky_spot="9B5D0D07-0A9B-4612-92B7-FF5810F55E58_32770" relative_location="{0.000000,0.500000}" position_kind="0"></StickySpot>
        </Hotspots>
        <g>
            <text style="font-family:Helvetica; font-size:18.000000; fill: #000000;" text-anchor="middle" transform="matrix(1.000000,0.000000,-0.000000,1.000000,733.825684,509.988953)">TPD </text>
            <text style="font-family:Helvetica; font-size:18.000000; fill: #000000;" text-anchor="middle" transform="matrix(1.000000,0.000000,-0.000000,1.000000,733.825684,531.988953)">leisure</text>
        </g>
    </g>
    <g ID="eSK5_0A88BD45-8896-41F3-A623-48C182A64C11" dclass="DiaElement" element_type="eSK5">
        <path ID="contour_60D02784-63EA-429C-A9B2-542DE92C0D09" d=" M 789.663574 470.082031 L 880.956543 470.082031 L 880.956543 562.200562 L 789.663574 562.200562 Z M 789.663574 470.082031" dclass="DKDrawableShape" fill-opacity="0.000000" fill="#000000"></path>
        <path ID="eSK5_BDC5F015-1592-4593-8370-2DC442910944" d=" M 882.663208 468.641541 L 882.566284 471.379761 C 882.566284 471.967499 882.663208 472.163086 882.663208 472.163086 C 882.857056 469.815063 882.857056 468.641541 882.663208 468.641541 Z M 882.663208 468.641541" dclass="DKDrawableShape" fill-opacity="1.000000" fill="#000000"></path>
        <path ID="eSK5_1A7BE091-D2E6-4ABF-A476-E9C34E453253" d=" M 877.042236 474.215759 C 877.139160 476.269440 877.332947 481.159058 877.526794 488.884644 C 877.623718 496.610229 877.817505 504.042480 877.913452 511.279114 C 878.011353 518.320190 877.428955 533.966980 876.362854 558.023865 C 876.265930 558.219482 876.169006 558.317261 876.169006 558.415039 L 876.169006 558.415039 C 876.072144 558.415039 876.072144 558.415039 876.072144 558.415039 C 873.551392 557.926086 867.059204 557.926086 856.495667 558.512817 C 843.412415 559.197388 821.800842 558.903992 791.467041 557.730530 C 791.660889 557.045959 791.660889 554.208984 791.563965 549.319336 C 791.951599 538.661011 791.370117 533.282410 789.722595 533.282410 C 788.947327 533.282410 788.462769 534.944885 788.075073 538.269836 C 787.978149 539.149963 787.978149 540.127869 787.881226 541.203613 C 787.784363 543.843994 787.784363 546.582153 787.881226 549.320374 C 787.881226 556.165833 788.462769 560.468689 789.528809 562.228943 C 821.025513 563.305664 850.971619 563.794678 879.270203 563.598022 C 879.754761 563.402466 880.045532 563.109070 880.142395 562.717957 C 880.239319 562.816711 880.335327 562.913513 880.433167 562.913513 C 881.983765 562.913513 882.662170 547.168945 882.177551 515.777588 L 882.177551 492.502991 C 882.468262 486.342041 882.565247 481.647003 882.565247 478.224274 C 882.565247 476.757416 882.565247 474.508179 882.565247 471.378815 L 882.565247 468.640625 C 872.001709 468.934021 861.825867 469.031799 851.939758 468.934021 C 840.892639 468.836212 820.539978 468.934021 790.787659 469.228363 C 790.690735 468.934021 790.496887 468.739410 790.206116 468.739410 C 790.012329 468.739410 789.721558 469.129578 789.430847 470.010712 C 789.430847 470.010712 789.430847 470.108490 789.430847 470.304077 C 788.849365 472.357727 788.558655 476.660583 788.364807 483.212708 C 788.267883 488.102325 788.267883 492.991943 788.364807 497.881561 C 788.364807 498.760681 788.461731 507.954163 788.558655 525.459045 L 788.558655 525.654602 C 788.558655 525.947998 788.558655 526.241394 788.558655 526.533752 C 789.430847 527.022705 790.496887 527.121521 791.950623 526.827148 C 793.307373 526.632507 793.695007 516.950073 793.113525 497.978394 C 792.629028 484.386200 793.016663 476.464050 794.276550 473.921417 C 822.674011 472.945435 850.294250 472.945435 877.042236 474.215759 Z M 875.782349 558.610657 C 875.297791 558.512817 875.394714 558.416016 875.975220 558.416016 C 875.879272 558.513794 875.782349 558.513794 875.782349 558.610657 Z M 875.782349 558.610657" dclass="DKDrawableShape" fill-opacity="1.000000" fill="#000000"></path>
        <path ID="eSK5_7138615E-184D-4F28-80D5-06714BF574BF" d=" M 882.566284 471.379761 C 882.566284 471.967499 882.663208 472.163086 882.663208 472.163086 C 882.857056 469.816040 882.857056 468.641541 882.663208 468.641541 L 882.566284 471.379761" dclass="DKDrawableShape" stroke="#FFFFFF" stroke-linecap="round" stroke-linejoin="round" stroke-opacity="1.000000" fill-opacity="0.000000" fill="#000000" stroke-width="1.000000"></path>
        <path ID="eSK5_3D43F6C9-F88B-4BB8-832F-E2A3CC988C67" d=" M 788.560669 526.534729 C 788.173035 535.238220 787.979187 540.127869 787.882263 541.203613 C 787.785400 543.843994 787.785400 546.582153 787.882263 549.320374 C 787.882263 556.165833 788.463745 560.468689 789.529785 562.228943 C 821.026550 563.305664 850.972656 563.794617 879.271240 563.598022 C 879.755798 563.402466 880.046570 563.109070 880.143433 562.717896 C 880.240356 562.816711 880.336304 562.913513 880.434204 562.913513 C 881.984802 562.913513 882.663208 547.168945 882.178589 515.777588 L 882.178589 492.502960 C 882.469299 486.342041 882.566284 481.647003 882.566284 478.224274 C 882.566284 476.757385 882.566284 474.508179 882.566284 471.378784" dclass="DKDrawableShape" stroke="#FFFFFF" stroke-linecap="round" stroke-linejoin="round" stroke-opacity="1.000000" fill-opacity="0.000000" fill="#000000" stroke-width="1.000000"></path>
        <path d=" M 788.560669 525.460022 L 788.560669 525.655579 C 788.560669 525.948975 788.560669 526.242371 788.560669 526.534729" meta_id="eSK5" stroke="#FFFFFF" stroke-linejoin="round" stroke-opacity="1.000000" fill-opacity="0.000000" fill="#000000" stroke-linecap="round" stroke-width="1.000000"></path>
        <path d=" M 788.560669 525.459961 C 788.560669 525.850159 788.560669 526.242310 788.560669 526.535706" meta_id="eSK5" stroke="#FFFFFF" stroke-linejoin="round" stroke-opacity="1.000000" fill-opacity="0.000000" fill="#000000" stroke-linecap="round" stroke-width="1.000000"></path>
        <path ID="eSK5_EFACC5BB-9AA7-4213-8757-0A0ED089CA4C" d=" M 882.566284 471.379761 L 882.566284 468.641571 C 872.002808 468.934967 861.826965 469.032745 851.940796 468.934967 C 840.893677 468.837158 820.541016 468.934967 790.788696 469.229309 C 790.691772 468.934967 790.497986 468.740356 790.207214 468.740356 C 790.013367 468.740356 789.722656 469.130554 789.431946 470.011658 C 789.431946 470.011658 789.431946 470.109467 789.431946 470.305054 C 788.850464 472.358673 788.559692 476.661560 788.365906 483.213623 C 788.268921 488.103241 788.268921 492.992889 788.365906 497.882507 C 788.365906 498.761658 788.462769 507.955109 788.559692 525.459961" dclass="DKDrawableShape" stroke="#FFFFFF" stroke-linecap="round" stroke-linejoin="round" stroke-opacity="1.000000" fill-opacity="0.000000" fill="#000000" stroke-width="1.000000"></path>
        <Hotspots>
            <StickySpot id_sticky_spot="939597F0-A9FB-453E-8037-AA119A0F4C61_32768" relative_location="{-0.500000,0.000000}" position_kind="0"></StickySpot>
            <StickySpot id_sticky_spot="939597F0-A9FB-453E-8037-AA119A0F4C61_32769" relative_location="{0.500000,0.000000}" position_kind="0"></StickySpot>
            <StickySpot id_sticky_spot="939597F0-A9FB-453E-8037-AA119A0F4C61_32770" relative_location="{0.000000,0.500000}" position_kind="0"></StickySpot>
            <StickySpot id_sticky_spot="939597F0-A9FB-453E-8037-AA119A0F4C61_32771" relative_location="{0.000000,-0.500000}" position_kind="0"></StickySpot>
        </Hotspots>
        <g>
            <text style="font-family:Helvetica; font-size:18.000000; fill: #000000;" text-anchor="middle" transform="matrix(1.000000,0.000000,-0.000000,1.000000,835.310059,510.641296)">TPD </text>
            <text style="font-family:Helvetica; font-size:18.000000; fill: #000000;" text-anchor="middle" transform="matrix(1.000000,0.000000,-0.000000,1.000000,835.310059,532.641296)">accedent</text>
        </g>
    </g>
    <defs></defs>
    <g dclass="DiaConnector">
        <g enabled="1" ID="7F91CFD9-FB42-4A80-9A6D-FEA86E34E283" dclass="DiaConnectorStyle">
            <path d=" M 255.160172 368.708527 L 254.195770 473.335968" dclass="DiaConnectorStylizedPath" fill="none" stroke="#000001" stroke-linejoin="round" stroke-opacity="1.000000" stroke-linecap="round" stroke-width="3.000000"></path>
        </g>
        <ConnectorEndPoint location="{255.16017, 368.70853}" id_target_sticky_spot="D7DE29EE-0633-4086-AE2B-A86E6B49B1BB_32773" is_start="1"></ConnectorEndPoint>
        <ConnectorEndPoint location="{254.19577, 473.33597}" id_target_sticky_spot="AB00A929-E2D1-48AC-A521-B3B0F541919A_32772" is_start="0"></ConnectorEndPoint>
        <text style="font-family:Helvetica; font-size:14.000000; fill: #000000;">
            <textPath xlink:href="#ADAEC637-82E8-4ED4-882A-4DF25347A03B" startOffset="0.000000%" baseline-shift="0.000000"></textPath>
        </text>
    </g>
    <g dclass="DiaConnector">
        <g enabled="1" ID="B17A2ECF-395D-4582-8579-26F3DA821C17" dclass="DiaConnectorStyle">
            <path d=" M 365.613312 214.644531 L 255.160156 283.041504" dclass="DiaConnectorStylizedPath" fill="none" stroke="#000001" stroke-linejoin="round" stroke-opacity="1.000000" stroke-linecap="round" stroke-width="3.000000"></path>
        </g>
        <ConnectorEndPoint location="{365.61331, 214.64453}" id_target_sticky_spot="F2AB0F62-9DE1-4551-A54D-9EB5CAEB56D3_32772" is_start="1"></ConnectorEndPoint>
        <ConnectorEndPoint location="{255.16016, 283.0415}" id_target_sticky_spot="D7DE29EE-0633-4086-AE2B-A86E6B49B1BB_32771" is_start="0"></ConnectorEndPoint>
        <text style="font-family:Helvetica; font-size:14.000000; fill: #000000;">
            <textPath xlink:href="#7161FE19-8B8F-4F20-B300-3D10295FF7B8" startOffset="0.000000%" baseline-shift="0.000000"></textPath>
        </text>
    </g>
    <g dclass="DiaConnector">
        <g enabled="1" ID="C1E2D23C-10F9-4F5A-83DB-9FC8C09BA907" dclass="DiaConnectorStyle">
            <path d=" M 444.113312 257.478027 L 398.214844 471.796875" dclass="DiaConnectorStylizedPath" fill="none" stroke="#000001" stroke-linejoin="round" stroke-opacity="1.000000" stroke-linecap="round" stroke-width="3.000000"></path>
        </g>
        <ConnectorEndPoint location="{444.11331, 257.47803}" id_target_sticky_spot="F2AB0F62-9DE1-4551-A54D-9EB5CAEB56D3_32773" is_start="1"></ConnectorEndPoint>
        <ConnectorEndPoint location="{398.21484, 471.79688}" id_target_sticky_spot="DBDBF9B6-184E-4CD0-A622-FD95C17A7281_32771" is_start="0"></ConnectorEndPoint>
        <text style="font-family:Helvetica; font-size:14.000000; fill: #000000;">
            <textPath xlink:href="#D64F1ADC-A751-411D-914A-B1711857A22E" startOffset="0.000000%" baseline-shift="0.000000"></textPath>
        </text>
    </g>
    <g dclass="DiaConnector">
        <g enabled="1" ID="2661C5B9-3747-4A36-A775-1EF500AEF6E4" dclass="DiaConnectorStyle">
            <path d=" M 444.113312 257.478027 L 500.957031 470.796875" dclass="DiaConnectorStylizedPath" fill="none" stroke="#000001" stroke-linejoin="round" stroke-opacity="1.000000" stroke-linecap="round" stroke-width="3.000000"></path>
        </g>
        <ConnectorEndPoint location="{444.11331, 257.47803}" id_target_sticky_spot="F2AB0F62-9DE1-4551-A54D-9EB5CAEB56D3_32774" is_start="1"></ConnectorEndPoint>
        <ConnectorEndPoint location="{500.95703, 470.79688}" id_target_sticky_spot="0235FF0A-C06C-40F9-9D43-36F6B919FC48_32771" is_start="0"></ConnectorEndPoint>
        <text style="font-family:Helvetica; font-size:14.000000; fill: #000000;">
            <textPath xlink:href="#3BF5FB9F-06A5-4575-93A7-A571B136909A" startOffset="0.000000%" baseline-shift="0.000000"></textPath>
        </text>
    </g>
    <g dclass="DiaConnector">
        <g enabled="1" ID="E773F725-323F-4BDC-AFE9-1EB43BBCC6A6" dclass="DiaConnectorStyle">
            <path d=" M 662.189758 257.164856 L 635.638367 470.363281" dclass="DiaConnectorStylizedPath" fill="none" stroke="#000001" stroke-linejoin="round" stroke-opacity="1.000000" stroke-linecap="round" stroke-width="3.000000"></path>
        </g>
        <ConnectorEndPoint location="{662.18976, 257.16486}" id_target_sticky_spot="A52494F3-5937-4D1D-8E77-B22615D66644_32772" is_start="1"></ConnectorEndPoint>
        <ConnectorEndPoint location="{635.63837, 470.36328}" id_target_sticky_spot="D1165D86-E1AF-4734-96E7-1A7A7C368636_32772" is_start="0"></ConnectorEndPoint>
        <text style="font-family:Helvetica; font-size:14.000000; fill: #000000;">
            <textPath xlink:href="#F9B0A7AC-A339-4D88-9514-A9B197B68323" startOffset="0.000000%" baseline-shift="0.000000"></textPath>
        </text>
    </g>
    <g dclass="DiaConnector">
        <g enabled="1" ID="3A57DC29-D27F-4ECC-B567-E006C1465ADD" dclass="DiaConnectorStyle">
            <path d=" M 667.429688 257.923370 L 733.824219 467.988281" dclass="DiaConnectorStylizedPath" fill="none" stroke="#000001" stroke-linejoin="round" stroke-opacity="1.000000" stroke-linecap="round" stroke-width="3.000000"></path>
        </g>
        <ConnectorEndPoint location="{667.42969, 257.92337}" id_target_sticky_spot="A52494F3-5937-4D1D-8E77-B22615D66644_32773" is_start="1"></ConnectorEndPoint>
        <ConnectorEndPoint location="{733.82422, 467.98828}" id_target_sticky_spot="9B5D0D07-0A9B-4612-92B7-FF5810F55E58_32771" is_start="0"></ConnectorEndPoint>
        <text style="font-family:Helvetica; font-size:14.000000; fill: #000000;">
            <textPath xlink:href="#8BF0D53C-68B6-46B7-9A0B-F1FC3C918089" startOffset="0.000000%" baseline-shift="0.000000"></textPath>
        </text>
    </g>
    <g dclass="DiaConnector">
        <g enabled="1" ID="A715477F-E10B-4FF7-BE12-492D68FC0AF4" dclass="DiaConnectorStyle">
            <path d=" M 667.429688 257.923370 L 835.308594 468.640625" dclass="DiaConnectorStylizedPath" fill="none" stroke="#000001" stroke-linejoin="round" stroke-opacity="1.000000" stroke-linecap="round" stroke-width="3.000000"></path>
        </g>
        <ConnectorEndPoint location="{667.42969, 257.92337}" id_target_sticky_spot="A52494F3-5937-4D1D-8E77-B22615D66644_32774" is_start="1"></ConnectorEndPoint>
        <ConnectorEndPoint location="{835.30859, 468.64062}" id_target_sticky_spot="939597F0-A9FB-453E-8037-AA119A0F4C61_32771" is_start="0"></ConnectorEndPoint>
        <text style="font-family:Helvetica; font-size:14.000000; fill: #000000;">
            <textPath xlink:href="#CF46493D-7C83-49F8-9B03-31247720ECA4" startOffset="0.000000%" baseline-shift="0.000000"></textPath>
        </text>
    </g>
    <g ID="eSK208TEXT_FAFC3020-48D5-4951-97E2-A8B2FA71DB5B" dclass="DiaText" element_type="eSK208TEXT">
        <path ID="contour_226BC462-2982-4429-8A1C-D939F441338C" d=" M 22.528095 300.526154 L 22.100986 128.762939 L 143.408859 128.461273 L 143.835968 300.224487 Z M 22.528095 300.526154" dclass="DKDrawableShape" fill-opacity="0.000000" fill="#000000"></path>
        <Hotspots>
            <StickySpot id_sticky_spot="89A92BC4-3523-469E-A1D3-F4E97C53A93B_32768" relative_location="{-0.500000,0.000000}" position_kind="0"></StickySpot>
            <StickySpot id_sticky_spot="89A92BC4-3523-469E-A1D3-F4E97C53A93B_32769" relative_location="{0.500000,0.000000}" position_kind="0"></StickySpot>
            <StickySpot id_sticky_spot="89A92BC4-3523-469E-A1D3-F4E97C53A93B_32770" relative_location="{0.000000,0.500000}" position_kind="0"></StickySpot>
            <StickySpot id_sticky_spot="89A92BC4-3523-469E-A1D3-F4E97C53A93B_32771" relative_location="{0.000000,-0.500000}" position_kind="0"></StickySpot>
        </Hotspots>
        <g transform="rotate(-90.142473, 82.968475, 214.493713)">
            <text style="font-family:Helvetica; font-size:24.000000; fill: #000000;" text-anchor="middle" transform="matrix(1.000000,0.000000,-0.000000,1.000000,82.968475,221.743698)">Products</text>
        </g>
    </g>
    <g ID="eSK208TEXT_C3DE2D7E-9D9B-437D-83C0-4A4AF049E14E" dclass="DiaText" element_type="eSK208TEXT">
        <path ID="contour_1E89232E-8DB4-4DBA-83C8-EBCA45DC0F1A" d=" M 63.595840 559.962708 L 63.373039 472.881073 L 103.372910 472.778748 L 103.595711 559.860352 Z M 63.595840 559.962708" dclass="DKDrawableShape" fill-opacity="0.000000" fill="#000000"></path>
        <Hotspots>
            <StickySpot id_sticky_spot="F0FD1D40-0981-4C00-B78A-05AB3D3D2873_32768" relative_location="{-0.500000,0.000000}" position_kind="0"></StickySpot>
            <StickySpot id_sticky_spot="F0FD1D40-0981-4C00-B78A-05AB3D3D2873_32769" relative_location="{0.500000,0.000000}" position_kind="0"></StickySpot>
            <StickySpot id_sticky_spot="F0FD1D40-0981-4C00-B78A-05AB3D3D2873_32770" relative_location="{0.000000,0.500000}" position_kind="0"></StickySpot>
            <StickySpot id_sticky_spot="F0FD1D40-0981-4C00-B78A-05AB3D3D2873_32771" relative_location="{0.000000,-0.500000}" position_kind="0"></StickySpot>
        </Hotspots>
        <g transform="rotate(-90.146592, 83.484375, 516.370728)">
            <text style="font-family:Helvetica; font-size:24.000000; fill: #000000;" text-anchor="middle" transform="matrix(1.000000,0.000000,-0.000000,1.000000,83.484383,523.620728)">Covers</text>
        </g>
    </g>
    <g ID="eSK208TEXT_3CB7BE08-51E0-4D9F-A1EB-563E9C7D0E71" dclass="DiaText" element_type="eSK208TEXT">
        <path ID="contour_3717764C-1599-47D8-8F5B-71E500A77916" d=" M 64.595467 369.707092 L 65.565987 290.361450 L 99.563438 290.777283 L 98.592918 370.122925 Z M 64.595467 369.707092" dclass="DKDrawableShape" fill-opacity="0.000000" fill="#000000"></path>
        <Hotspots>
            <StickySpot id_sticky_spot="5E4EA0C1-F049-4D63-9295-38157F303F50_32768" relative_location="{-0.500000,0.000000}" position_kind="0"></StickySpot>
            <StickySpot id_sticky_spot="5E4EA0C1-F049-4D63-9295-38157F303F50_32769" relative_location="{0.500000,0.000000}" position_kind="0"></StickySpot>
            <StickySpot id_sticky_spot="5E4EA0C1-F049-4D63-9295-38157F303F50_32770" relative_location="{0.000000,0.500000}" position_kind="0"></StickySpot>
            <StickySpot id_sticky_spot="5E4EA0C1-F049-4D63-9295-38157F303F50_32771" relative_location="{0.000000,-0.500000}" position_kind="0"></StickySpot>
        </Hotspots>
        <g transform="rotate(-89.299218, 82.079453, 330.242188)">
            <text style="font-family:Helvetica; font-size:24.000000; fill: #000000;" text-anchor="middle" transform="matrix(1.000000,0.000000,-0.000000,1.000000,82.079453,337.492218)">Riders</text>
        </g>
    </g>
    <g ID="eSK4_2AE358BB-EF9A-4EA1-9ABA-9DD95FCA8B1A" dclass="DiaElement" element_type="eSK4">
        <path ID="contour_275AC67E-B697-482E-B994-96E94FBCA4BD" d=" M 44.709229 170.918671 L 48.801697 254.939285 C 48.829285 260.224518 56.052246 269.988434 66.135864 272.626373 C 88.437653 278.461151 93.125305 276.760010 130.292023 276.565918 L 838.578735 272.201324 C 869.870361 272.037903 878.636169 272.776520 892.827393 268.403534 C 904.215332 264.896454 924.162537 257.134033 924.126465 250.234467 L 925.381958 159.166092 C 925.343628 151.830292 919.331787 150.469238 903.119446 147.881531 C 882.923218 144.657990 869.978455 144.824387 838.259644 144.134232 L 128.221130 148.887970 C 102.838318 149.020508 79.941406 148.003098 66.210205 150.826172 C 49.443146 154.274689 44.669983 162.309006 44.709229 170.918671 Z M 44.709229 170.918671" dclass="DKDrawableShape" fill-opacity="0.000000" fill="#000000"></path>
        <path ID="eSK4_60C6C3D6-78F0-415D-8938-29A64AF5027A" d=" M 845.497681 143.854736 C 841.550110 143.721832 838.730347 143.586060 835.911255 143.600784 C 834.219971 143.609619 831.964478 143.621399 830.273193 143.630219 C 817.305542 143.697937 693.831116 144.494751 458.158020 145.877472 C 223.612518 147.254349 96.198059 148.223709 75.897278 148.785782 C 56.166321 149.344849 44.371552 158.071030 42.205200 175.107513 C 39.474945 192.146973 38.972961 204.006393 40.700226 210.837845 C 42.426666 217.515732 43.021362 223.442566 43.610657 228.303833 C 43.636047 233.168045 44.781128 236.504761 47.046692 238.470596 C 46.485382 238.929550 46.486969 239.233597 47.051453 239.382660 C 48.750031 239.677826 54.388336 239.648392 65.095276 239.592468 C 64.942078 210.255295 64.264648 188.521317 63.625305 174.083649 C 62.428772 159.800934 78.735687 152.419250 112.564484 152.242599 L 859.052246 148.190765 C 886.686035 150.480194 900.802002 154.357208 903.090698 159.665619 C 903.357422 210.739731 904.072937 239.769989 905.795044 246.753448 C 905.291504 258.310394 891.794312 264.915771 864.737671 266.273163 C 838.244629 267.627594 712.519165 269.196228 489.815277 270.815277 L 100.210083 270.873749 C 91.188385 270.767273 84.419525 270.196136 79.341003 269.462616 C 74.825745 268.572571 70.856812 264.338593 68.566803 256.597961 C 65.707947 249.012421 61.742950 245.535370 56.110443 246.628815 C 54.983612 246.788254 54.420715 246.941681 53.857605 247.096603 C 50.470764 246.354218 48.790497 247.427078 47.673065 250.473114 C 47.673859 250.626678 47.673859 250.626678 47.674652 250.777161 C 48.243317 251.686279 48.248077 252.598297 48.253632 253.662323 C 52.819672 264.279205 56.796570 270.034790 59.621857 271.236176 C 64.706573 273.185730 68.095764 274.384155 69.788055 274.527344 C 73.737976 275.113220 78.251617 275.699188 83.892853 276.277832 C 85.591461 276.571442 88.412170 276.860718 91.790894 277.148682 C 353.402710 276.238495 547.913513 275.374725 675.903076 274.402405 C 804.450073 273.275085 869.850708 272.629517 873.232910 272.458282 C 876.619873 272.138092 881.122253 271.657043 886.191895 270.718475 C 890.703796 269.934875 894.640259 269.002228 898.024902 268.224518 C 901.402100 267.142792 903.654175 266.521484 903.653442 266.370972 C 913.777344 261.604248 919.399719 258.534668 920.520264 257.162292 C 926.128052 251.356628 928.346680 245.416595 927.756897 239.339249 C 927.637085 216.386307 927.574341 204.377808 927.567993 203.161804 L 927.405273 172.000504 C 927.951538 168.653397 928.502686 166.218384 928.493164 164.394287 C 929.040405 161.199219 929.026917 158.615143 927.883057 156.644943 C 926.180664 154.525711 921.658081 152.269165 914.320923 149.721756 C 906.414917 147.330872 895.130615 145.869690 881.595093 145.180328 C 868.059753 144.490967 857.908691 144.087952 851.700439 143.968353 C 849.444397 143.834137 847.189209 143.845901 845.497681 143.854736 Z M 845.497681 143.854736" dclass="DKDrawableShape" fill-opacity="0.286651" fill="#999999"></path>
        <path ID="eSK4_91731B5F-D618-4E91-B503-FD5F60B6D5D8" d=" M 851.694763 143.974380 C 849.444214 143.834122 847.183472 143.845917 845.491821 143.854767 C 841.544189 143.721817 838.724487 143.586060 835.905396 143.600769 C 834.214050 143.609604 831.958618 143.621384 830.267334 143.630219 C 817.299683 143.697937 693.825195 144.494781 458.152100 145.877502 C 223.606598 147.254349 96.192139 148.223740 75.891571 148.785812 C 56.160614 149.344833 44.365570 158.071060 42.199249 175.107544 C 39.469238 192.147003 38.967255 204.006424 40.694489 210.837845 C 42.420715 217.515762 43.015594 223.442566 43.604950 228.303864 C 43.630341 233.168060 44.775391 236.504761 47.040924 238.470627 C 46.479614 238.929581 46.481201 239.233582 47.045685 239.382675 L 47.673248 250.476135 C 47.674072 250.629684 47.674072 250.629684 47.674835 250.780167 C 48.243286 251.689255 48.248047 252.601303 48.253601 253.665344 C 52.819641 264.282227 56.796570 270.037811 59.622070 271.239166 C 64.706757 273.188751 68.095917 274.387146 69.788025 274.530334 C 73.737976 275.116211 78.251587 275.702209 83.893036 276.280823 C 85.591644 276.574463 88.412140 276.863708 91.791107 277.151642 C 353.402710 276.241516 547.913513 275.377747 675.903076 274.405334 C 804.450073 273.278076 869.850891 272.632507 873.232910 272.461304 C 876.620117 272.141113 881.122498 271.660034 886.191895 270.721497 C 890.704041 269.937866 894.640381 269.005249 898.025146 268.227509 C 901.402466 267.145782 903.654419 266.524475 903.653687 266.373993 C 913.777588 261.607239 919.399780 258.537689 920.520447 257.165283 C 926.128357 251.359619 928.346924 245.419586 927.756958 239.342255 C 927.637085 216.389297 927.574341 204.380814 927.567993 203.164780 L 927.405273 172.003510 C 927.951721 168.656403 928.502930 166.221390 928.493408 164.397308 C 929.040466 161.202194 929.026978 158.618118 927.883301 156.647949 C 926.180908 154.528687 921.658325 152.272156 914.320923 149.724731 C 906.414917 147.333862 895.130859 145.872696 881.595337 145.183304 C 868.054138 144.497040 857.903015 144.095520 851.694763 143.974380" dclass="DKDrawableShape" stroke="#FFFFFF" stroke-linecap="round" stroke-linejoin="round" stroke-opacity="0.286651" fill-opacity="0.000000" fill="#000000" stroke-width="1.000000"></path>
        <Hotspots>
            <StickySpot id_sticky_spot="8A2ABFA7-0B8E-4D01-B018-2735B44A190F_32768" relative_location="{-0.500000,0.000000}" position_kind="0"></StickySpot>
            <StickySpot id_sticky_spot="8A2ABFA7-0B8E-4D01-B018-2735B44A190F_32769" relative_location="{0.500000,0.000000}" position_kind="0"></StickySpot>
            <StickySpot id_sticky_spot="8A2ABFA7-0B8E-4D01-B018-2735B44A190F_32770" relative_location="{0.000000,0.500000}" position_kind="0"></StickySpot>
            <StickySpot id_sticky_spot="8A2ABFA7-0B8E-4D01-B018-2735B44A190F_32771" relative_location="{0.000000,-0.500000}" position_kind="0"></StickySpot>
        </Hotspots>
        <g transform="rotate(-0.299204, 484.422638, 210.499863)"></g>
    </g>
    <g ID="eSK4_2E9261C8-887C-4F13-918E-11A12BB98A05" dclass="DiaElement" element_type="eSK4">
        <path ID="contour_923C40AF-DB22-4E59-B5BA-8479C9FC11A4" d=" M 45.044556 301.398376 L 49.133911 385.418976 C 49.161499 390.704224 56.378296 400.468170 66.453278 403.106171 C 88.735992 408.941040 93.419647 407.239899 130.554504 407.045959 L 838.234314 402.684570 C 869.499146 402.521301 878.257446 403.259949 892.436523 398.887024 C 903.814697 395.380005 923.744751 387.617645 923.708740 380.718079 L 924.962646 289.649719 C 924.924377 282.313904 918.917603 280.952820 902.719238 278.365051 C 882.540283 275.141449 869.606567 275.307770 837.914917 274.617462 L 128.484802 279.368042 C 103.123749 279.500458 80.246460 278.482941 66.527008 281.305969 C 49.774353 284.754395 45.005310 292.788696 45.044556 301.398376 Z M 45.044556 301.398376" dclass="DKDrawableShape" fill-opacity="0.000000" fill="#000000"></path>
        <path ID="eSK4_E6DBDBE3-D602-477B-9C63-BCDA4BE5C1E1" d=" M 845.146790 274.338013 C 841.202637 274.205078 838.385315 274.069275 835.568604 274.083984 C 833.878723 274.092834 831.625244 274.104584 829.935364 274.113403 C 816.978821 274.181091 693.610168 274.977325 458.139008 276.359009 C 223.794464 277.734833 96.489166 278.703613 76.205780 279.265594 C 56.491730 279.824585 44.707092 288.550690 42.542694 305.587189 C 39.814850 322.626617 39.313354 334.486053 41.039154 341.317505 C 42.764160 347.995392 43.358368 353.922241 43.947174 358.783508 C 43.972565 363.647705 45.116669 366.984436 47.380310 368.950287 C 46.819489 369.409241 46.821075 369.713287 47.385071 369.862335 C 49.082214 370.157532 54.715668 370.128113 65.413422 370.072235 C 65.260223 340.735046 64.583282 319.001068 63.944427 304.563416 C 62.748871 290.280670 79.041748 282.899078 112.841614 282.722595 L 858.689758 278.674103 C 886.299927 280.963623 900.403809 284.840698 902.690552 290.149139 C 902.957275 341.223236 903.672302 370.253510 905.392944 377.236969 C 904.889893 388.793915 891.404297 395.399231 864.370850 396.756531 C 837.900513 398.110809 712.282776 399.678894 489.769714 401.296936 L 100.498291 401.353668 C 91.484314 401.247162 84.721283 400.675964 79.647095 399.942444 C 75.135712 399.052399 71.170135 394.818390 68.882050 387.077759 C 66.025635 379.492188 62.064026 376.015106 56.436340 377.108551 C 55.310455 377.267975 54.748047 377.421387 54.185425 377.576324 C 50.801483 376.833923 49.122681 377.906769 48.006226 380.952820 C 48.007019 381.106354 48.007019 381.106354 48.007812 381.256836 C 48.575989 382.165955 48.580750 383.078003 48.586304 384.142029 C 53.148468 394.758911 57.121979 400.514526 59.944855 401.715942 C 65.025208 403.665497 68.411499 404.863922 70.102356 405.007141 C 74.048889 405.593018 78.558655 406.179016 84.195068 406.757690 C 85.892212 407.051300 88.710541 407.340576 92.086365 407.628540 C 353.474030 406.719543 547.818176 405.856659 675.698059 404.884888 C 804.134888 403.758148 869.479492 403.112854 872.858887 402.941650 C 876.242920 402.621490 880.741455 402.140442 885.806702 401.201904 C 890.314697 400.418335 894.247864 399.485718 897.629517 398.708008 C 901.003906 397.626282 903.254028 397.004974 903.253296 396.854492 C 913.368469 392.087830 918.986023 389.018250 920.105591 387.645874 C 925.708618 381.840240 927.925293 375.900238 927.335938 369.822876 C 927.216125 346.869934 927.153442 334.861420 927.147095 333.645416 L 926.984314 302.484131 C 927.530090 299.137024 928.080811 296.701996 928.071289 294.877930 C 928.618042 291.682861 928.604492 289.098785 927.461670 287.128571 C 925.760742 285.009338 921.242004 282.752777 913.911072 280.205322 C 906.011841 277.814392 894.737244 276.353149 881.213257 275.663757 C 867.689575 274.974335 857.547119 274.571259 851.344238 274.451660 C 849.090149 274.317413 846.836853 274.329163 845.146790 274.338013 Z M 845.146790 274.338013" dclass="DKDrawableShape" fill-opacity="0.283033" fill="#999999"></path>
        <path ID="eSK4_B80BFAA2-35F1-4D4E-A6DC-3F490C5573AB" d=" M 851.338501 274.457672 C 849.089966 274.317383 846.831177 274.329193 845.140869 274.338013 C 841.196655 274.205048 838.379395 274.069275 835.562683 274.083984 C 833.872803 274.092834 831.619263 274.104584 829.929443 274.113403 C 816.972900 274.181061 693.604248 274.977356 458.133087 276.359039 C 223.788544 277.734833 96.483276 278.703644 76.200104 279.265625 C 56.486053 279.824585 44.701141 288.550720 42.536774 305.587219 C 39.809174 322.626648 39.307678 334.486053 41.033447 341.317505 C 42.758240 347.995422 43.352631 353.922241 43.941498 358.783539 C 43.966888 363.647736 45.110962 366.984436 47.374573 368.950317 C 46.813751 369.409271 46.815338 369.713257 47.379333 369.862366 L 48.006409 380.955811 C 48.007233 381.109375 48.007233 381.109375 48.007996 381.259857 C 48.575958 382.168945 48.580719 383.080994 48.586273 384.145020 C 53.148438 394.761932 57.122009 400.517548 59.945068 401.718903 C 65.025421 403.668518 68.411682 404.866943 70.102356 405.010132 C 74.048920 405.596008 78.558655 406.182007 84.195282 406.760681 C 85.892426 407.054321 88.710510 407.343597 92.086578 407.631531 C 353.474060 406.722565 547.818176 405.859680 675.698120 404.887848 C 804.134888 403.761139 869.479736 403.115875 872.858826 402.944672 C 876.243103 402.624512 880.741638 402.143463 885.806641 401.204926 C 890.314941 400.421326 894.247925 399.488708 897.629761 398.710999 C 901.004150 397.629303 903.254272 397.007996 903.253479 396.857513 C 913.368652 392.090820 918.986084 389.021271 920.105774 387.648865 C 925.708862 381.843262 927.925476 375.903198 927.335999 369.825867 C 927.216125 346.872925 927.153442 334.864441 927.147095 333.648407 L 926.984375 302.487152 C 927.530273 299.140045 928.081055 296.705017 928.071533 294.880920 C 928.618042 291.685822 928.604614 289.101746 927.461914 287.131592 C 925.760925 285.012329 921.242188 282.755737 913.911133 280.208313 C 906.011841 277.817383 894.737427 276.356171 881.213501 275.666718 C 867.683899 274.980408 857.541504 274.578827 851.338501 274.457672" dclass="DKDrawableShape" stroke="#FFFFFF" stroke-linecap="round" stroke-linejoin="round" stroke-opacity="0.283033" fill-opacity="0.000000" fill="#000000" stroke-width="1.000000"></path>
        <Hotspots>
            <StickySpot id_sticky_spot="5E072F77-96D9-4502-ABB1-F19F844DA944_32768" relative_location="{-0.500000,0.000000}" position_kind="0"></StickySpot>
            <StickySpot id_sticky_spot="5E072F77-96D9-4502-ABB1-F19F844DA944_32769" relative_location="{0.495174,-0.038066}" position_kind="1"></StickySpot>
            <StickySpot id_sticky_spot="5E072F77-96D9-4502-ABB1-F19F844DA944_32770" relative_location="{0.000000,0.500000}" position_kind="0"></StickySpot>
            <StickySpot id_sticky_spot="5E072F77-96D9-4502-ABB1-F19F844DA944_32771" relative_location="{0.000000,-0.500000}" position_kind="0"></StickySpot>
        </Hotspots>
        <g transform="rotate(-0.299204, 483.491730, 342.114838)"></g>
    </g>
    <g ID="eSK4_04F16953-10AF-4C13-9CFA-C56139891AD8" dclass="DiaElement" element_type="eSK4">
        <path ID="contour_518649BB-0D57-4A66-9D5F-B68AB468F019" d=" M 45.521576 472.611633 L 49.610931 556.632263 C 49.638519 561.917480 56.855316 571.681396 66.930298 574.319397 C 89.213013 580.154297 93.896667 578.453125 131.031525 578.259216 L 838.711304 573.897827 C 869.976196 573.734558 878.734497 574.473206 892.913513 570.100281 C 904.291687 566.593262 924.221802 558.830933 924.185730 551.931335 L 925.439697 460.862976 C 925.401367 453.527161 919.394653 452.166077 903.196228 449.578308 C 883.017334 446.354706 870.083618 446.521027 838.391968 445.830719 L 128.961823 450.581299 C 103.600769 450.713715 80.723480 449.696198 67.004028 452.519226 C 50.251373 455.967651 45.482330 464.001953 45.521576 472.611633 Z M 45.521576 472.611633" dclass="DKDrawableShape" fill-opacity="0.000000" fill="#000000"></path>
        <path ID="eSK4_7B71247C-EAC5-4FAB-B75E-57A46C11F6CC" d=" M 845.623779 445.551270 C 841.679626 445.418335 838.862305 445.282593 836.045654 445.297302 C 834.355713 445.306122 832.102234 445.317871 830.412354 445.326721 C 817.455811 445.394348 694.087158 446.190613 458.616028 447.572296 C 224.271484 448.948120 96.966187 449.916901 76.682800 450.478882 C 56.968750 451.037872 45.184113 459.763977 43.019714 476.800476 C 40.291870 493.839905 39.790375 505.699341 41.516174 512.530823 C 43.241180 519.208679 43.835388 525.135559 44.424194 529.996765 C 44.449585 534.861023 45.593689 538.197754 47.857330 540.163574 C 47.296509 540.622498 47.298096 540.926575 47.862091 541.075623 C 49.559235 541.370789 55.192688 541.341370 65.890442 541.285522 C 65.737244 511.948334 65.060303 490.214355 64.421448 475.776703 C 63.225891 461.493958 79.518768 454.112366 113.318634 453.935852 L 859.166748 449.887390 C 886.776978 452.176910 900.880798 456.054016 903.167603 461.362427 C 903.434326 512.436523 904.149292 541.466797 905.869995 548.450256 C 905.366943 560.007202 891.881287 566.612549 864.847900 567.969788 C 838.377563 569.324097 712.759766 570.892212 490.246735 572.510254 L 100.975311 572.566956 C 91.961334 572.460449 85.198303 571.889282 80.124115 571.155701 C 75.612732 570.265686 71.647156 566.031677 69.359070 558.291016 C 66.502655 550.705444 62.541046 547.228394 56.913361 548.321838 C 55.787476 548.481262 55.225067 548.634705 54.662445 548.789612 C 51.278503 548.047180 49.599701 549.120056 48.483246 552.166077 C 48.484039 552.319641 48.484039 552.319641 48.484833 552.470154 C 49.053009 553.379272 49.057770 554.291260 49.063324 555.355286 C 53.625488 565.972229 57.598999 571.727844 60.421875 572.929199 C 65.502228 574.878784 68.888519 576.077209 70.579376 576.220398 C 74.525909 576.806274 79.035675 577.392334 84.672089 577.970947 C 86.369232 578.264587 89.187561 578.553833 92.563385 578.841858 C 353.951050 577.932861 548.295166 577.069946 676.175110 576.098206 C 804.611938 574.971436 869.956543 574.326172 873.335876 574.154968 C 876.719910 573.834778 881.218445 573.353760 886.283691 572.415222 C 890.791748 571.631592 894.724854 570.698975 898.106567 569.921265 C 901.480957 568.839600 903.731079 568.218262 903.730286 568.067810 C 913.845459 563.301086 919.463013 560.231567 920.582581 558.859192 C 926.185669 553.053528 928.402344 547.113525 927.812988 541.036133 C 927.693115 518.083252 927.630432 506.074707 927.624084 504.858704 L 927.461304 473.697418 C 928.007080 470.350311 928.557861 467.915283 928.548340 466.091217 C 929.095093 462.896149 929.081543 460.312073 927.938721 458.341858 C 926.237732 456.222626 921.718994 453.966064 914.388062 451.418610 C 906.488892 449.027679 895.214233 447.566467 881.690308 446.877014 C 868.166626 446.187622 858.024170 445.784546 851.821228 445.664948 C 849.567139 445.530701 847.313843 445.542450 845.623779 445.551270 Z M 845.623779 445.551270" dclass="DKDrawableShape" fill-opacity="0.283033" fill="#999999"></path>
        <path ID="eSK4_FCF6E4FE-0D85-4747-BD24-E55C37645A56" d=" M 851.815552 445.670929 C 849.566956 445.530640 847.308167 445.542450 845.617920 445.551270 C 841.673706 445.418304 838.856445 445.282532 836.039673 445.297241 C 834.349854 445.306091 832.096313 445.317841 830.406494 445.326660 C 817.449951 445.394318 694.081299 446.190613 458.610107 447.572296 C 224.265564 448.948090 96.960297 449.916901 76.677124 450.478882 C 56.963074 451.037842 45.178162 459.763977 43.013794 476.800476 C 40.286194 493.839905 39.784698 505.699310 41.510468 512.530762 C 43.235260 519.208679 43.829651 525.135498 44.418518 529.996765 C 44.443909 534.861023 45.587982 538.197693 47.851593 540.163574 C 47.290771 540.622498 47.292358 540.926514 47.856354 541.075623 L 48.483429 552.169067 C 48.484253 552.322632 48.484253 552.322632 48.485016 552.473145 C 49.052979 553.382202 49.057739 554.294250 49.063293 555.358276 C 53.625458 565.975220 57.599030 571.730835 60.422089 572.932190 C 65.502441 574.881775 68.888702 576.080200 70.579376 576.223389 C 74.525940 576.809265 79.035675 577.395264 84.672302 577.973938 C 86.369446 578.267578 89.187531 578.556824 92.563599 578.844788 C 353.951050 577.935791 548.295166 577.072937 676.175110 576.101074 C 804.611938 574.974365 869.956726 574.329102 873.335815 574.157898 C 876.720093 573.837769 881.218628 573.356689 886.283691 572.418213 C 890.791992 571.634583 894.724915 570.701965 898.106812 569.924255 C 901.481201 568.842529 903.731323 568.221252 903.730469 568.070801 C 913.845703 563.304077 919.463074 560.234497 920.582764 558.862122 C 926.185852 553.056519 928.402466 547.116455 927.812988 541.039124 C 927.693115 518.086182 927.630432 506.077698 927.624084 504.861664 L 927.461365 473.700409 C 928.007324 470.353302 928.558044 467.918274 928.548523 466.094177 C 929.095093 462.899078 929.081604 460.315002 927.938904 458.344849 C 926.237915 456.225586 921.719238 453.968994 914.388123 451.421570 C 906.488892 449.030640 895.214478 447.569427 881.690552 446.879974 C 868.160889 446.193665 858.018555 445.792084 851.815552 445.670929" dclass="DKDrawableShape" stroke="#FFFFFF" stroke-linecap="round" stroke-linejoin="round" stroke-opacity="0.283033" fill-opacity="0.000000" fill="#000000" stroke-width="1.000000"></path>
        <Hotspots>
            <StickySpot id_sticky_spot="4BB73A9E-96CF-4B8F-B99A-4D7249E2FCB7_32768" relative_location="{-0.500000,0.000000}" position_kind="0"></StickySpot>
            <StickySpot id_sticky_spot="4BB73A9E-96CF-4B8F-B99A-4D7249E2FCB7_32769" relative_location="{0.495174,-0.038066}" position_kind="1"></StickySpot>
            <StickySpot id_sticky_spot="4BB73A9E-96CF-4B8F-B99A-4D7249E2FCB7_32770" relative_location="{0.000000,0.500000}" position_kind="0"></StickySpot>
            <StickySpot id_sticky_spot="4BB73A9E-96CF-4B8F-B99A-4D7249E2FCB7_32771" relative_location="{0.000000,-0.500000}" position_kind="0"></StickySpot>
        </Hotspots>
        <g transform="rotate(-0.299204, 483.968750, 513.328125)"></g>
    </g>
</svg>