<?xml version="1.0" encoding="utf-8"?>
<!-- Generator: Adobe Illustrator 15.0.2, SVG Export Plug-In . SVG Version: 6.00 Build 0)  -->
<!DOCTYPE svg PUBLIC "-//W3C//DTD SVG 1.1//EN" "http://www.w3.org/Graphics/SVG/1.1/DTD/svg11.dtd">
<svg version="1.1" id="Ebene_1" xmlns="http://www.w3.org/2000/svg" xmlns:xlink="http://www.w3.org/1999/xlink" x="0px" y="0px"
	 width="86.2px" height="28.3px" viewBox="0 -0.2 86.2 28.3" style="enable-background:new 0 -0.2 86.2 28.3;" xml:space="preserve"
	>
<style type="text/css">
<![CDATA[
	.st0{fill:none;stroke:#91877B;stroke-width:0.75;}
	.st1{fill:#91877B;}
	.st2{fill:#005192;}
]]>
</style>
<g>
	<path class="st2" d="M6.4,21v-6.5c0-0.6-0.2-1.2-0.5-1.6c-0.3-0.4-0.8-0.6-1.4-0.6c-0.3,0-0.7,0.1-0.9,0.2
		c-0.2,0.1-0.4,0.4-0.6,0.7c-0.2,0.2-0.3,0.5-0.4,0.7c-0.1,0.3-0.1,0.5-0.1,0.7V21H0V7h2.5v5.3c0.1-0.1,0.2-0.3,0.4-0.5
		c0.2-0.2,0.4-0.4,0.6-0.5C3.7,11.1,4,11,4.3,10.9c0.3-0.1,0.7-0.2,1.1-0.2c1.1,0,1.9,0.3,2.6,0.9C8.6,12.2,8.9,13,8.9,14v7H6.4z"/>
	<path class="st2" d="M18,13.1c-0.1-0.1-0.3-0.2-0.6-0.3c-0.3-0.1-0.6-0.2-0.9-0.2c-0.4,0-0.8,0.1-1,0.2c-0.3,0.1-0.6,0.3-0.8,0.5
		c-0.2,0.2-0.4,0.5-0.5,0.8c-0.1,0.3-0.1,0.6-0.1,0.8V21h-2.5v-9.9h2.2l0.1,1.4c0.1-0.2,0.3-0.4,0.4-0.6c0.2-0.2,0.4-0.4,0.6-0.6
		c0.2-0.2,0.5-0.3,0.8-0.5c0.3-0.1,0.7-0.2,1.1-0.2c0.4,0,0.8,0.1,1.1,0.2c0.4,0.2,0.6,0.3,0.8,0.4L18,13.1z"/>
</g>
<g>
	<path class="st1" d="M40.1,21h-2l-2.9-4.3c-0.5-0.7-0.9-1.2-1.3-1.6c-0.4-0.4-0.8-0.6-1.2-0.6h-1V21H30V7h5c0.5,0,1,0.1,1.5,0.2
		c0.5,0.1,0.9,0.4,1.3,0.7c0.4,0.3,0.7,0.7,0.9,1.2c0.2,0.5,0.3,1,0.3,1.6c0,0.6-0.1,1.2-0.4,1.6c-0.2,0.4-0.6,0.8-1,1.1
		c-0.4,0.3-0.8,0.5-1.3,0.7c-0.5,0.2-1,0.2-1.5,0.3c0.3,0.1,0.6,0.4,0.9,0.8c0.3,0.4,0.7,0.8,1,1.2L40.1,21z M37.4,10.7
		c0-0.4-0.1-0.8-0.2-1C37,9.4,36.8,9.2,36.6,9c-0.2-0.2-0.6-0.4-1-0.5s-0.7-0.1-1.1-0.1h-2.8v4.8h1.9c0.7,0,1.3,0,1.8-0.1
		s0.9-0.3,1.2-0.5c0.3-0.2,0.5-0.5,0.6-0.8C37.4,11.5,37.4,11.1,37.4,10.7z"/>
	<path class="st1" d="M49.5,16.3h-6.6c0,0.7,0.1,1.2,0.2,1.7c0.2,0.5,0.4,0.9,0.6,1.2c0.3,0.3,0.6,0.6,0.9,0.7
		c0.3,0.1,0.7,0.2,1.1,0.2s0.7,0,1-0.1c0.3-0.1,0.5-0.2,0.7-0.4c0.2-0.1,0.4-0.3,0.6-0.5c0.2-0.2,0.3-0.3,0.4-0.5l0.6,1
		c-0.2,0.2-0.3,0.3-0.5,0.5c-0.2,0.2-0.4,0.4-0.7,0.5c-0.3,0.2-0.6,0.3-0.9,0.4s-0.8,0.2-1.2,0.2c-0.8,0-1.5-0.1-2.1-0.4
		c-0.6-0.3-1-0.7-1.4-1.2c-0.4-0.5-0.6-1-0.8-1.7c-0.2-0.6-0.2-1.3-0.2-2c0-0.6,0.1-1.2,0.2-1.8c0.2-0.6,0.4-1.2,0.7-1.6
		c0.3-0.5,0.8-0.9,1.3-1.2c0.5-0.3,1.2-0.4,1.9-0.4c0.7,0,1.4,0.1,1.9,0.4c0.5,0.3,0.9,0.6,1.2,1c0.3,0.4,0.5,0.9,0.7,1.5
		c0.1,0.6,0.2,1.1,0.2,1.7v0.8H49.5z M48.1,15.2c0-1-0.2-1.7-0.6-2.3c-0.5-0.6-1.1-0.9-2-0.9c-0.4,0-0.8,0.1-1.1,0.3
		c-0.3,0.2-0.6,0.4-0.8,0.7c-0.2,0.3-0.4,0.6-0.5,1s-0.2,0.8-0.2,1.2H48.1z"/>
	<path class="st1" d="M60.8,8.4h-6.7v4.9h6.4v1.4h-6.4V21h-1.7V7h8.4V8.4L60.8,8.4z"/>
	<path class="st1" d="M64.8,21h-1.5V7h1.5V21z"/>
	<path class="st1" d="M75.7,16.3h-6.6c0,0.7,0.1,1.2,0.2,1.7c0.2,0.5,0.4,0.9,0.6,1.2c0.3,0.3,0.6,0.6,0.9,0.7
		c0.3,0.1,0.7,0.2,1.1,0.2s0.7,0,1-0.1s0.5-0.2,0.7-0.4c0.2-0.1,0.4-0.3,0.6-0.5c0.2-0.2,0.3-0.3,0.4-0.5l0.6,1
		c-0.2,0.2-0.3,0.3-0.5,0.5c-0.2,0.2-0.4,0.4-0.7,0.5c-0.3,0.2-0.6,0.3-0.9,0.4c-0.3,0.1-0.8,0.2-1.2,0.2c-0.8,0-1.5-0.1-2.1-0.4
		c-0.6-0.3-1-0.7-1.4-1.2s-0.6-1-0.8-1.7c-0.2-0.6-0.2-1.3-0.2-2c0-0.6,0.1-1.2,0.2-1.8c0.2-0.6,0.4-1.2,0.7-1.6
		c0.3-0.5,0.8-0.9,1.3-1.2c0.5-0.3,1.2-0.4,1.9-0.4c0.7,0,1.4,0.1,1.9,0.4c0.5,0.3,0.9,0.6,1.2,1c0.3,0.4,0.5,0.9,0.7,1.5
		c0.1,0.6,0.2,1.1,0.2,1.7v0.8H75.7z M74.2,15.2c0-1-0.2-1.7-0.6-2.3S72.5,12,71.7,12c-0.4,0-0.8,0.1-1.1,0.3
		c-0.3,0.2-0.6,0.4-0.8,0.7c-0.2,0.3-0.4,0.6-0.5,1c-0.1,0.4-0.2,0.8-0.2,1.2H74.2z"/>
	<path class="st1" d="M86.2,21h-1.9l-2.8-4.2L78.7,21H77l3.6-5.1l-3.5-4.6H79l2.7,3.8l2.6-3.8H86l-3.4,4.6L86.2,21z"/>
</g>
<line class="st0" x1="23.3" y1="28.2" x2="23.3" y2="-0.2"/>
</svg>
